<svg width="915" height="129" viewBox="0 0 915 129" fill="none" xmlns="http://www.w3.org/2000/svg">
<path d="M128.13 1H1V128.13H128.13V1Z" fill="#F8FBFE"/>
<g opacity="0.1">
<path opacity="0.1" d="M128.12 125.12V128.12H125.12" stroke="#DFE1FE" stroke-miterlimit="10"/>
<path opacity="0.1" d="M119.35 128.12H6.88" stroke="#DFE1FE" stroke-miterlimit="10" stroke-dasharray="5.77 5.77"/>
<path opacity="0.1" d="M4 128.12H1V125.12" stroke="#DFE1FE" stroke-miterlimit="10"/>
<path opacity="0.1" d="M1 119.36V6.87988" stroke="#DFE1FE" stroke-miterlimit="10" stroke-dasharray="5.77 5.77"/>
<path opacity="0.1" d="M1 4V1H4" stroke="#DFE1FE" stroke-miterlimit="10"/>
<path opacity="0.1" d="M9.76001 1H122.24" stroke="#DFE1FE" stroke-miterlimit="10" stroke-dasharray="5.77 5.77"/>
<path opacity="0.1" d="M125.12 1H128.12V4" stroke="#DFE1FE" stroke-miterlimit="10"/>
<path opacity="0.1" d="M128.12 9.77002V122.24" stroke="#DFE1FE" stroke-miterlimit="10" stroke-dasharray="5.77 5.77"/>
</g>
<path d="M82.6708 44.0528C78.7551 40.1365 73.766 37.4693 68.3344 36.3885C62.9028 35.3077 57.2727 35.8619 52.1561 37.981C47.0395 40.1001 42.6662 43.689 39.5893 48.2936C36.5124 52.8983 34.8701 58.312 34.8701 63.8501C34.8701 69.3882 36.5124 74.8019 39.5893 79.4066C42.6662 84.0112 47.0395 87.6001 52.1561 89.7192C57.2727 91.8383 62.9028 92.3925 68.3344 91.3117C73.766 90.2309 78.7551 87.5637 82.6708 83.6474C87.9208 78.3965 90.8701 71.2753 90.8701 63.8501C90.8701 56.4249 87.9208 49.3037 82.6708 44.0528ZM42.1726 54.3746C43.5835 51.2452 45.6741 48.4695 48.2925 46.2495C50.9108 44.0295 53.991 42.4209 57.309 41.5408C60.6271 40.6607 64.0996 40.5312 67.474 41.1617C70.8484 41.7922 74.0398 43.1668 76.8163 45.1856C69.9435 44.5365 61.3399 48.0492 54.3654 55.011C51.7331 57.639 49.503 60.6411 47.7472 63.9201C45.3591 61.0789 43.4738 57.8506 42.1726 54.3746ZM57.6108 86.8546C52.2964 85.4307 47.6638 82.1587 44.545 77.6262C41.4262 73.0938 40.0255 67.5979 40.5945 62.1255C43.4835 68.4001 50.7763 74.1019 60.3472 76.6474C63.9202 77.6166 67.6181 78.0456 71.3181 77.9201C70.0606 81.3985 68.2231 84.6389 65.8835 87.5037C63.1079 87.7845 60.3043 87.5559 57.6108 86.8292V86.8546ZM75.0345 60.2419C74.091 56.6528 72.6244 53.2221 70.6817 50.0601C74.3207 49.4123 78.0432 49.3865 81.6908 49.9837C83.3235 52.244 84.5271 54.785 85.2417 57.4801C86.668 62.7953 86.1521 68.4449 83.7866 73.4138C81.4211 78.3827 77.3612 82.3451 72.3363 84.5892C76.3072 78.9765 77.5799 69.7746 75.0345 60.2419Z" fill="#DFE1FE"/>
<path d="M285.26 1H158.13V128.13H285.26V1Z" fill="#F8FBFE"/>
<path d="M256.95 86.3772C256.372 85.4583 255.617 84.6636 254.729 84.0397C253.842 83.4158 252.838 82.9752 251.778 82.7435C247.721 81.8001 244.203 79.2894 241.992 75.7601C239.782 72.2307 239.058 67.9697 239.979 63.9082C240.333 62.3384 240.215 60.699 239.64 59.1958C239.066 57.6926 238.06 56.3927 236.749 55.4594C235.438 54.5261 233.881 54.001 232.272 53.9499C230.664 53.8989 229.076 54.3242 227.709 55.1725C226.341 56.0209 225.255 57.2543 224.586 58.718C223.917 60.1818 223.696 61.8104 223.95 63.3995C224.204 64.9886 224.921 66.4673 226.013 67.6498C227.104 68.8323 228.521 69.666 230.085 70.046C232.108 70.5023 234.021 71.3534 235.714 72.5505C237.407 73.7475 238.848 75.2671 239.953 77.0219C241.058 78.7768 241.806 80.7325 242.153 82.7769C242.501 84.8213 242.442 86.9143 241.979 88.9358C241.705 90.239 241.754 91.5894 242.122 92.8693C242.489 94.1492 243.164 95.3198 244.088 96.2792C245.011 97.2385 246.155 97.9574 247.42 98.3732C248.686 98.789 250.033 98.889 251.346 98.6647C252.658 98.4404 253.896 97.8984 254.951 97.0861C256.007 96.2737 256.847 95.2157 257.4 94.0041C257.952 92.7924 258.2 91.4641 258.122 90.1348C258.043 88.8054 257.641 87.5154 256.95 86.3772Z" fill="#DFE1FE"/>
<path d="M206.744 77.3133C208.173 78.0928 209.802 78.4278 211.422 78.2752C213.042 78.1226 214.579 77.4894 215.837 76.4569C217.095 75.4243 218.016 74.0395 218.481 72.4802C218.946 70.9208 218.935 69.258 218.448 67.7051C217.832 65.7249 217.612 63.6426 217.802 61.5774C217.992 59.5122 218.588 57.5048 219.555 55.6703C220.522 53.8358 221.842 52.2102 223.439 50.8867C225.035 49.5632 226.878 48.568 228.86 47.9579C230.397 47.4764 231.757 46.5509 232.77 45.298C233.782 44.0451 234.402 42.5207 234.55 40.9166C234.698 39.3125 234.368 37.7004 233.602 36.2833C232.837 34.8661 231.669 33.7071 230.246 32.9522C228.822 32.1973 227.208 31.8801 225.605 32.0407C224.002 32.2012 222.483 32.8322 221.238 33.8544C219.992 34.8765 219.078 36.2441 218.608 37.785C218.138 39.3259 218.135 40.9713 218.598 42.5141C219.814 46.4971 219.403 50.7998 217.454 54.4803C215.506 58.1608 212.178 60.9194 208.201 62.1524C206.63 62.6078 205.233 63.524 204.189 64.7826C203.145 66.0412 202.504 67.5841 202.347 69.2115C202.19 70.839 202.525 72.4761 203.309 73.9108C204.093 75.3456 205.29 76.5119 206.744 77.2588V77.3133Z" fill="#DFE1FE"/>
<path d="M227.757 75.9794C226.672 76.0175 225.605 76.2719 224.618 76.7276C223.632 77.1833 222.747 77.8311 222.014 78.6333C219.172 81.6736 215.241 83.4648 211.082 83.6153C206.922 83.7658 202.872 82.2632 199.817 79.4362C199.028 78.6956 198.099 78.1193 197.085 77.7408C196.072 77.3623 194.992 77.1892 193.911 77.2315C192.58 77.2943 191.284 77.682 190.137 78.3607C188.99 79.0394 188.027 79.9885 187.331 81.1251C186.635 82.2618 186.228 83.5515 186.146 84.8816C186.063 86.2118 186.307 87.5419 186.857 88.756C187.407 89.97 188.245 91.0311 189.299 91.8466C190.353 92.6621 191.591 93.2071 192.904 93.4342C194.217 93.6613 195.566 93.5636 196.833 93.1495C198.1 92.7354 199.246 92.0176 200.171 91.0586C201.579 89.5344 203.274 88.3029 205.158 87.4347C207.042 86.5665 209.08 86.0785 211.153 85.9989C213.226 85.9193 215.295 86.2494 217.24 86.9705C219.186 87.6917 220.97 88.7895 222.491 90.2012C223.48 91.0957 224.674 91.7339 225.968 92.0601C227.262 92.3864 228.616 92.3907 229.911 92.0727C231.207 91.7547 232.405 91.1241 233.4 90.236C234.396 89.3479 235.159 88.2293 235.622 86.9782C236.086 85.7271 236.235 84.3816 236.058 83.0592C235.881 81.7369 235.383 80.4781 234.607 79.3928C233.831 78.3076 232.801 77.4291 231.607 76.834C230.413 76.239 229.091 75.9455 227.757 75.9794Z" fill="#DFE1FE"/>
<path d="M442.39 1H315.26V128.13H442.39V1Z" fill="#F8FBFE"/>
<g opacity="0.1">
<path opacity="0.1" d="M442.38 125.13V128.13H439.38" stroke="#DFE1FE" stroke-miterlimit="10"/>
<path opacity="0.1" d="M433.61 128.13H321.14" stroke="#DFE1FE" stroke-miterlimit="10" stroke-dasharray="5.77 5.77"/>
<path opacity="0.1" d="M318.26 128.13H315.26V125.13" stroke="#DFE1FE" stroke-miterlimit="10"/>
<path opacity="0.1" d="M315.26 119.36V6.89014" stroke="#DFE1FE" stroke-miterlimit="10" stroke-dasharray="5.77 5.77"/>
<path opacity="0.1" d="M315.26 4V1H318.26" stroke="#DFE1FE" stroke-miterlimit="10"/>
<path opacity="0.1" d="M324.02 1H436.5" stroke="#DFE1FE" stroke-miterlimit="10" stroke-dasharray="5.77 5.77"/>
<path opacity="0.1" d="M439.38 1H442.38V4" stroke="#DFE1FE" stroke-miterlimit="10"/>
<path opacity="0.1" d="M442.38 9.77002V122.24" stroke="#DFE1FE" stroke-miterlimit="10" stroke-dasharray="5.77 5.77"/>
</g>
<path opacity="0.8" d="M378.39 23L344.259 45.6192V45.6618L370.651 63.1432L378.39 58.0053V23Z" fill="#DFE1FE"/>
<path opacity="0.8" d="M344.259 80.6884L378.39 103.286V68.2809L370.651 63.1431L344.259 80.6244V80.6884Z" fill="#DFE1FE"/>
<path opacity="0.8" d="M415.868 46.1739L381.737 23.5547V58.56L389.497 63.6978L415.868 46.2165V46.1739Z" fill="#DFE1FE"/>
<path opacity="0.8" d="M381.737 103.841L415.868 81.2215V81.1788L389.497 63.6975L381.737 68.8353V103.841Z" fill="#DFE1FE"/>
<path opacity="0.8" d="M344.259 45.6619V80.6246L370.651 63.1432L344.259 45.6619Z" fill="#F1F2FF"/>
<path opacity="0.8" d="M415.869 81.179V46.2163L389.497 63.6977L415.869 81.179Z" fill="#F1F2FF"/>
<path d="M599.52 1H472.39V128.13H599.52V1Z" fill="#F8FBFE"/>
<g opacity="0.1">
<path opacity="0.1" d="M599.51 125.12V128.12H596.51" stroke="#DFE1FE" stroke-miterlimit="10"/>
<path opacity="0.1" d="M590.74 128.12H478.27" stroke="#DFE1FE" stroke-miterlimit="10" stroke-dasharray="5.77 5.77"/>
<path opacity="0.1" d="M475.39 128.12H472.39V125.12" stroke="#DFE1FE" stroke-miterlimit="10"/>
<path opacity="0.1" d="M472.39 119.35V6.88" stroke="#DFE1FE" stroke-miterlimit="10" stroke-dasharray="5.77 5.77"/>
<path opacity="0.1" d="M472.39 4V1H475.39" stroke="#DFE1FE" stroke-miterlimit="10"/>
<path opacity="0.1" d="M481.15 1H593.63" stroke="#DFE1FE" stroke-miterlimit="10" stroke-dasharray="5.77 5.77"/>
<path opacity="0.1" d="M596.51 1H599.51V4" stroke="#DFE1FE" stroke-miterlimit="10"/>
<path opacity="0.1" d="M599.51 9.76001V122.24" stroke="#DFE1FE" stroke-miterlimit="10" stroke-dasharray="5.77 5.77"/>
</g>
<path d="M535.84 45.57L543.65 50.08L547.61 47.8L535.84 41L516.18 52.36L520.12 54.64L535.84 45.57Z" fill="#DFE1FE"/>
<path d="M551.55 50.08L535.84 59.15L528.03 54.64L524.08 56.92L535.84 63.71L555.51 52.36L551.55 50.08Z" fill="#DFE1FE"/>
<path d="M519.34 65.3401L515.39 63.0601V76.6401L535.05 88.0001V83.4401L519.34 74.3601V65.3401Z" fill="#DFE1FE"/>
<path d="M515.39 58.4999L531.1 67.5699V76.5899L535.05 78.8799V65.2899L515.39 53.9399V58.4999Z" fill="#DFE1FE"/>
<path d="M548.4 63.06V58.5L536.63 65.29V88L540.58 85.72V67.57L548.4 63.06Z" fill="#DFE1FE"/>
<path d="M552.34 56.2199V74.3599L544.53 78.8799V83.4399L556.3 76.6399V53.9399L552.34 56.2199Z" fill="#DFE1FE"/>
<path d="M756.65 1H629.52V128.13H756.65V1Z" fill="#F8FBFE"/>
<path d="M669.297 56.0551C669.885 56.0383 670.468 56.1662 670.996 56.4275L676.046 59.3486C676.526 59.6845 676.926 60.1209 677.22 60.6274C677.513 61.1339 677.693 61.6983 677.746 62.2812V68.1001C677.691 68.6827 677.511 69.2465 677.218 69.7528C676.924 70.259 676.525 70.6957 676.046 71.0328L670.996 73.9539C670.467 74.2107 669.884 74.3346 669.297 74.3147C668.713 74.3375 668.133 74.2135 667.609 73.9539L662.547 71.0328C662.068 70.6957 661.669 70.259 661.376 69.7528C661.082 69.2465 660.902 68.6827 660.848 68.1001V62.2812C660.901 61.6983 661.08 61.1339 661.374 60.6274C661.667 60.1209 662.067 59.6845 662.547 59.3486L667.609 56.4275C668.131 56.1639 668.712 56.0359 669.297 56.0551ZM669.297 53.7276C668.303 53.7092 667.322 53.9457 666.445 54.4142L661.383 57.3702C660.552 57.9131 659.86 58.6434 659.363 59.5024C658.866 60.3615 658.577 61.3253 658.52 62.3162V68.135C658.577 69.126 658.866 70.0898 659.363 70.9488C659.86 71.8078 660.552 72.5382 661.383 73.0811L666.445 76.0021C667.323 76.4667 668.304 76.699 669.297 76.6772C670.293 76.6985 671.278 76.4662 672.159 76.0021L677.21 73.0811C678.041 72.5382 678.733 71.8078 679.23 70.9488C679.728 70.0898 680.016 69.126 680.073 68.135V62.3162C680.016 61.3253 679.728 60.3615 679.23 59.5024C678.733 58.6434 678.041 57.9131 677.21 57.3702L672.159 54.4491C671.279 53.9815 670.294 53.7453 669.297 53.7625V53.7276Z" fill="#DFE1FE"/>
<path d="M693.026 56.0552C693.61 56.0385 694.19 56.1664 694.713 56.4276L699.776 59.3487C700.252 59.687 700.649 60.1242 700.94 60.6304C701.232 61.1366 701.41 61.6998 701.463 62.2814V68.1002C701.408 68.6814 701.229 69.2441 700.938 69.7501C700.647 70.2561 700.251 70.6936 699.776 71.033L694.713 73.954C694.189 74.2108 693.609 74.3347 693.026 74.3148C692.439 74.3347 691.855 74.2109 691.327 73.954L686.264 71.033C685.789 70.6936 685.393 70.2561 685.102 69.7501C684.811 69.2441 684.632 68.6814 684.577 68.1002V62.2814C684.63 61.6998 684.808 61.1366 685.1 60.6304C685.391 60.1242 685.788 59.687 686.264 59.3487L691.327 56.4276C691.854 56.1663 692.438 56.0384 693.026 56.0552ZM693.026 53.7277C692.029 53.7105 691.044 53.9468 690.163 54.4143L685.101 57.3703C684.271 57.9138 683.581 58.6445 683.086 59.5036C682.591 60.3627 682.304 61.3262 682.249 62.3163V68.1352C682.304 69.1253 682.591 70.0888 683.086 70.9479C683.581 71.807 684.271 72.5377 685.101 73.0812L690.163 76.0023C691.045 76.4663 692.03 76.6986 693.026 76.6773C694.018 76.6992 695 76.4668 695.877 76.0023L700.939 73.0812C701.769 72.5377 702.459 71.807 702.954 70.9479C703.45 70.0888 703.736 69.1253 703.791 68.1352V62.3163C703.736 61.3262 703.45 60.3627 702.954 59.5036C702.459 58.6445 701.769 57.9138 700.939 57.3703L695.877 54.4492C695.001 53.9807 694.019 53.7443 693.026 53.7626V53.7277Z" fill="#DFE1FE"/>
<path d="M716.744 56.0551C717.332 56.0383 717.915 56.1662 718.443 56.4275L723.493 59.3486C723.973 59.6845 724.373 60.1209 724.667 60.6274C724.96 61.1339 725.14 61.6983 725.193 62.2812V68.1001C725.138 68.6827 724.958 69.2465 724.665 69.7528C724.371 70.259 723.972 70.6957 723.493 71.0328L718.443 73.9539C717.914 74.2107 717.331 74.3346 716.744 74.3147C716.16 74.3375 715.58 74.2135 715.056 73.9539L709.994 71.0328C709.515 70.6957 709.116 70.259 708.823 69.7528C708.529 69.2465 708.349 68.6827 708.295 68.1001V62.2812C708.348 61.6983 708.527 61.1339 708.821 60.6274C709.114 60.1209 709.514 59.6845 709.994 59.3486L715.056 56.4275C715.579 56.1639 716.159 56.0359 716.744 56.0551ZM716.744 53.7276C715.75 53.7092 714.769 53.9457 713.892 54.4142L708.83 57.3702C707.999 57.9131 707.307 58.6434 706.81 59.5024C706.313 60.3615 706.024 61.3253 705.967 62.3162V68.135C706.024 69.126 706.313 70.0898 706.81 70.9488C707.307 71.8078 707.999 72.5382 708.83 73.0811L713.892 76.0021C714.77 76.4667 715.751 76.699 716.744 76.6772C717.74 76.6985 718.725 76.4662 719.606 76.0021L724.657 73.0811C725.488 72.5382 726.18 71.8078 726.677 70.9488C727.175 70.0898 727.463 69.126 727.52 68.135V62.3162C727.463 61.3253 727.175 60.3615 726.677 59.5024C726.18 58.6434 725.488 57.9131 724.657 57.3702L719.606 54.4491C718.726 53.9815 717.741 53.7453 716.744 53.7625V53.7276Z" fill="#DFE1FE"/>
<path d="M681.155 76.782C681.748 76.7623 682.336 76.8903 682.866 77.1544L687.929 80.0755C688.405 80.4138 688.802 80.851 689.093 81.3572C689.384 81.8634 689.563 82.4266 689.616 83.0082V88.8271C689.56 89.4079 689.38 89.97 689.089 90.4758C688.798 90.9816 688.402 91.4193 687.929 91.7597L682.866 94.7041C682.333 94.9419 681.756 95.0648 681.173 95.0648C680.589 95.0648 680.012 94.9419 679.48 94.7041L674.417 91.783C673.943 91.4426 673.547 91.0048 673.256 90.499C672.965 89.9932 672.786 89.4311 672.73 88.8503V83.0315C672.783 82.4499 672.961 81.8867 673.252 81.3805C673.544 80.8743 673.941 80.4371 674.417 80.0988L679.48 77.1777C680.003 76.9165 680.582 76.7885 681.167 76.8053L681.155 76.782ZM681.167 74.4778C680.175 74.4559 679.193 74.6883 678.316 75.1528L673.253 78.0738C672.424 78.6198 671.734 79.3528 671.238 80.2137C670.743 81.0747 670.457 82.0398 670.402 83.0315V88.8503C670.458 89.8402 670.745 90.8033 671.24 91.6623C671.735 92.5212 672.425 93.2521 673.253 93.7963L678.316 96.7174C679.193 97.1819 680.175 97.4143 681.167 97.3924C682.163 97.4137 683.148 97.1814 684.03 96.7174L689.092 93.7963C689.921 93.2521 690.611 92.5212 691.106 91.6623C691.601 90.8033 691.888 89.8402 691.944 88.8503V83.0315C691.889 82.0398 691.602 81.0747 691.107 80.2137C690.612 79.3528 689.922 78.6198 689.092 78.0738L684.03 75.1295C683.148 74.6655 682.163 74.4332 681.167 74.4545V74.4778Z" fill="#DFE1FE"/>
<path d="M704.885 76.7818C705.47 76.7626 706.05 76.8907 706.572 77.1543L711.635 80.0753C712.114 80.4113 712.514 80.8477 712.808 81.3542C713.101 81.8607 713.281 82.4251 713.334 83.0081V88.8269C713.278 89.4091 713.097 89.9723 712.804 90.4784C712.51 90.9844 712.112 91.4214 711.635 91.7596L706.572 94.6806C706.046 94.9335 705.468 95.0571 704.885 95.0414C704.298 95.0555 703.716 94.9319 703.186 94.6806L698.135 91.7596C697.658 91.4214 697.259 90.9844 696.966 90.4784C696.673 89.9723 696.492 89.4091 696.436 88.8269V83.0081C696.489 82.4251 696.668 81.8607 696.962 81.3542C697.255 80.8477 697.655 80.4113 698.135 80.0753L703.186 77.1543C703.713 76.8929 704.296 76.7651 704.885 76.7818ZM704.885 74.4543C703.889 74.433 702.903 74.6653 702.022 75.1293L696.971 78.0504C696.14 78.5958 695.448 79.3283 694.951 80.1892C694.454 81.0501 694.165 82.0155 694.108 83.0081V88.8269C694.166 89.8176 694.455 90.781 694.952 91.6399C695.449 92.4988 696.141 93.2293 696.971 93.7729L702.022 96.6939C702.903 97.158 703.889 97.3903 704.885 97.369C705.877 97.3908 706.859 97.1585 707.736 96.6939L712.798 93.7729C713.629 93.2293 714.32 92.4988 714.817 91.6399C715.314 90.781 715.603 89.8176 715.661 88.8269V83.0081C715.604 82.0155 715.316 81.0501 714.819 80.1892C714.321 79.3283 713.63 78.5958 712.798 78.0504L707.736 75.1293C706.859 74.6648 705.877 74.4324 704.885 74.4543Z" fill="#DFE1FE"/>
<path d="M681.156 35.3284C681.744 35.3107 682.328 35.4386 682.855 35.7008L687.917 38.6219C688.393 38.9602 688.79 39.3974 689.082 39.9036C689.373 40.4098 689.551 40.973 689.605 41.5546V47.3734C689.55 47.9546 689.371 48.5173 689.08 49.0233C688.789 49.5293 688.392 49.9668 687.917 50.3061L682.866 53.2505C682.333 53.4883 681.756 53.6112 681.173 53.6112C680.589 53.6112 680.013 53.4883 679.48 53.2505L674.406 50.3876C673.931 50.0483 673.534 49.6108 673.243 49.1048C672.952 48.5988 672.773 48.0361 672.718 47.4549V41.636C672.771 41.0544 672.95 40.4913 673.241 39.9851C673.532 39.4789 673.93 39.0416 674.406 38.7034L679.468 35.7823C679.991 35.5211 680.571 35.3931 681.156 35.4099V35.3284ZM681.156 33.0824C680.162 33.064 679.181 33.3004 678.304 33.7689L673.242 36.69C672.412 37.2335 671.722 37.9643 671.227 38.8234C670.732 39.6825 670.445 40.6459 670.391 41.636V47.4549C670.445 48.445 670.732 49.4085 671.227 50.2676C671.722 51.1267 672.412 51.8574 673.242 52.4009L678.304 55.322C679.182 55.7865 680.163 56.0189 681.156 55.997C682.152 56.0183 683.137 55.786 684.018 55.322L689.081 52.4009C689.91 51.8574 690.6 51.1267 691.096 50.2676C691.591 49.4085 691.877 48.445 691.932 47.4549V41.636C691.877 40.6459 691.591 39.6825 691.096 38.8234C690.6 37.9643 689.91 37.2335 689.081 36.69L684.03 33.6875C683.149 33.22 682.164 32.9837 681.167 33.0009L681.156 33.0824Z" fill="#DFE1FE"/>
<path d="M704.885 35.3284C705.47 35.3091 706.05 35.4372 706.572 35.7008L711.635 38.6218C712.114 38.9578 712.514 39.3942 712.808 39.9007C713.101 40.4072 713.281 40.9716 713.334 41.5545V47.3734C713.279 47.9559 713.099 48.5198 712.806 49.026C712.512 49.5323 712.113 49.969 711.635 50.3061L706.572 53.2272C706.049 53.4867 705.469 53.6108 704.885 53.5879C704.297 53.6078 703.714 53.484 703.186 53.2272L698.135 50.3876C697.657 50.0505 697.257 49.6138 696.964 49.1075C696.67 48.6012 696.49 48.0374 696.436 47.4548V41.636C696.489 41.053 696.668 40.4887 696.962 39.9822C697.255 39.4757 697.655 39.0393 698.135 38.7033L703.186 35.7822C703.713 35.5209 704.296 35.3931 704.885 35.4098V35.3284ZM704.885 33.0823C703.888 33.0651 702.903 33.3013 702.022 33.7689L696.971 36.6899C696.14 37.2329 695.448 37.9633 694.951 38.8223C694.454 39.6813 694.165 40.645 694.108 41.636V47.4548C694.165 48.4458 694.454 49.4095 694.951 50.2686C695.448 51.1276 696.14 51.8579 696.971 52.4009L702.022 55.3219C702.903 55.786 703.889 56.0183 704.885 55.9969C705.877 56.0188 706.859 55.7865 707.736 55.3219L712.798 52.4009C713.629 51.8579 714.321 51.1276 714.818 50.2686C715.316 49.4095 715.604 48.4458 715.661 47.4548V41.636C715.604 40.645 715.316 39.6813 714.818 38.8223C714.321 37.9633 713.629 37.2329 712.798 36.6899L707.736 33.7689C706.86 33.3003 705.878 33.064 704.885 33.0823Z" fill="#DFE1FE"/>
<path d="M913.78 1H786.65V128.13H913.78V1Z" fill="#F8FBFE"/>
<g opacity="0.1">
<path opacity="0.1" d="M913.78 125.12V128.12H910.78" stroke="#DFE1FE" stroke-miterlimit="10"/>
<path opacity="0.1" d="M905.01 128.12H792.54" stroke="#DFE1FE" stroke-miterlimit="10" stroke-dasharray="5.77 5.77"/>
<path opacity="0.1" d="M789.65 128.12H786.65V125.12" stroke="#DFE1FE" stroke-miterlimit="10"/>
<path opacity="0.1" d="M786.65 119.35V6.88" stroke="#DFE1FE" stroke-miterlimit="10" stroke-dasharray="5.77 5.77"/>
<path opacity="0.1" d="M786.65 4V1H789.65" stroke="#DFE1FE" stroke-miterlimit="10"/>
<path opacity="0.1" d="M795.42 1H907.89" stroke="#DFE1FE" stroke-miterlimit="10" stroke-dasharray="5.77 5.77"/>
<path opacity="0.1" d="M910.78 1H913.78V4" stroke="#DFE1FE" stroke-miterlimit="10"/>
<path opacity="0.1" d="M913.78 9.76001V122.24" stroke="#DFE1FE" stroke-miterlimit="10" stroke-dasharray="5.77 5.77"/>
</g>
<path d="M851.161 49.6404C853.123 49.6422 855.063 50.0683 856.854 50.8907C858.645 51.7132 860.246 52.9136 861.555 54.4136L865.65 50.6269C863.029 47.637 859.589 45.5269 855.781 44.5721C851.973 43.6172 847.972 43.8619 844.301 45.2742C840.631 46.6865 837.46 49.2008 835.204 52.489C832.947 55.7773 831.71 59.6867 831.652 63.7073C831.595 67.7278 832.72 71.6728 834.882 75.0273C837.044 78.3819 840.141 80.9903 843.77 82.5122C847.399 84.034 851.391 84.3987 855.225 83.5586C859.058 82.7185 862.557 80.7126 865.262 77.8027L861.26 73.9045C859.665 75.6146 857.683 76.8928 855.489 77.6249C853.295 78.357 850.959 78.5202 848.689 78.0998C846.418 77.6795 844.285 76.6888 842.479 75.2162C840.674 73.7436 839.252 71.8351 838.341 69.6612C837.43 67.4873 837.059 65.1158 837.26 62.7588C837.461 60.4017 838.229 58.1325 839.494 56.1541C840.759 54.1756 842.483 52.5495 844.511 51.4212C846.538 50.2928 848.807 49.6974 851.114 49.6881L851.161 49.6404Z" fill="#DFE1FE"/>
<path d="M832.65 44.9093L828.609 41C825.453 44.0152 822.948 47.5992 821.239 51.5463C819.53 55.4933 818.65 59.7256 818.65 64C818.65 68.2744 819.53 72.5067 821.239 76.4537C822.948 80.4008 825.453 83.9848 828.609 87L832.65 83.0907C830.018 80.5944 827.929 77.6216 826.503 74.3445C825.077 71.0675 824.343 67.5514 824.343 64C824.343 60.4486 825.077 56.9325 826.503 53.6555C827.929 50.3784 830.018 47.4056 832.65 44.9093Z" fill="#DFE1FE"/>
<path d="M870.65 37.4753C865.141 33.2602 858.484 30.9914 851.65 31V36.6759C857.289 36.6705 862.783 38.5351 867.338 42L870.65 37.4753Z" fill="#DFE1FE"/>
<path d="M851.65 91.4006V97C858.042 97.0072 864.298 95.1435 869.65 91.6372L866.506 87C862.083 89.879 856.922 91.4078 851.65 91.4006Z" fill="#DFE1FE"/>
<path d="M851.65 84.4849C847.32 84.482 843.095 83.187 839.548 80.7751C836 78.3632 833.301 74.9508 831.816 71L826.65 73.3303C828.596 78.2367 832.026 82.4556 836.488 85.4312C840.951 88.4069 846.237 89.9997 851.65 90V84.4849Z" fill="#DFE1FE"/>
<path d="M831.167 63C831.502 57.7395 833.806 52.8049 837.61 49.1974C841.414 45.59 846.433 43.5798 851.65 43.5747V38C844.969 37.9998 838.544 40.595 833.705 45.2485C828.865 49.9021 825.981 56.2577 825.65 63H831.167Z" fill="#DFE1FE"/>
</svg>
