<svg width="274" height="14" viewBox="0 0 274 14" fill="none" xmlns="http://www.w3.org/2000/svg">
<path d="M71.479 13.9261C71.479 13.8854 71.413 13.8599 71.3323 13.8695C71.2516 13.879 71.0849 13.8407 70.9618 13.7845C70.832 13.7251 70.6318 13.6822 70.4849 13.6822C70.2848 13.6822 70.2687 13.6737 70.4079 13.6416C70.5432 13.6105 70.5387 13.5982 70.3886 13.5885C70.2349 13.5787 70.2416 13.5647 70.4201 13.5232C70.593 13.483 70.602 13.4676 70.4579 13.4583C70.3539 13.4516 70.2688 13.4335 70.2688 13.418C70.2688 13.4025 70.3361 13.3977 70.4184 13.4074C70.5041 13.4176 70.5295 13.406 70.4778 13.3802C70.4283 13.3556 70.4655 13.3354 70.5605 13.3354C70.6864 13.3354 70.6893 13.3197 70.5713 13.2776C70.4413 13.2312 70.4563 13.2198 70.6476 13.2198C70.8401 13.2198 70.8495 13.2124 70.6964 13.1811C70.5005 13.141 70.1202 13.1768 70.1698 13.2306C70.1827 13.2445 70.1134 13.2615 70.016 13.2684C69.8994 13.2766 69.8688 13.259 69.9264 13.2169C69.9745 13.1818 69.9521 13.1599 69.8766 13.1683C69.8011 13.1768 69.6032 13.1741 69.4368 13.1624C69.1969 13.1456 69.2674 13.1368 69.7772 13.1201C70.1781 13.107 70.4201 13.0838 70.4201 13.0583C70.4201 13.0359 70.5524 13.0175 70.714 13.0175C70.8757 13.0175 71.1011 12.9921 71.2149 12.9611C71.419 12.9054 72.1895 12.8295 72.4392 12.8404C72.5098 12.8435 72.9523 12.8275 73.4225 12.8048C73.8927 12.7821 74.703 12.7544 75.2232 12.7432C75.7433 12.732 76.2068 12.7111 76.2532 12.6968C76.2995 12.6825 76.4866 12.6705 76.6689 12.6701C76.8512 12.6697 77.4088 12.631 77.908 12.584C78.4072 12.5371 78.9307 12.4984 79.0714 12.498C79.2121 12.4976 79.3692 12.4844 79.4207 12.4685C79.4721 12.4526 79.4373 12.4396 79.3434 12.4396C79.1338 12.4396 79.2094 12.3103 79.4207 12.3075C79.5039 12.3064 79.8704 12.2892 80.2352 12.2692C80.5999 12.2493 81.0645 12.2409 81.2675 12.2507C81.4705 12.2604 81.8528 12.2556 82.117 12.24C82.3812 12.2245 82.9772 12.1975 83.4414 12.1802C84.7155 12.1326 85.3958 12.0928 85.3958 12.0659C85.3958 12.038 77.6358 12.0575 75.7145 12.0901C74.7023 12.1074 74.3161 12.1026 73.8993 12.068C73.6081 12.0438 73.3358 12.0222 73.2942 12.0199C73.2526 12.0176 73.0196 12 72.7765 11.9808C72.5333 11.9616 72.227 11.9539 72.0958 11.9637C71.9645 11.9734 69.9511 11.9861 67.6216 11.9918C65.292 11.9975 63.0797 12.0151 62.7053 12.031C62.3309 12.0468 61.2089 12.0748 60.212 12.0933C59.215 12.1117 58.2691 12.1402 58.1099 12.1564C57.9508 12.1727 57.488 12.1799 57.0817 12.1725C56.6753 12.165 56.3062 12.1702 56.2613 12.1841C56.2164 12.198 56.1164 12.2018 56.0389 12.1927C55.9615 12.1835 55.8981 12.1898 55.8981 12.2067C55.8981 12.2235 55.8471 12.2347 55.7847 12.2315C55.533 12.2188 54.2341 12.2714 54.2341 12.2943C54.2341 12.3225 53.0914 12.3694 52.6594 12.3589C52.5005 12.3551 52.2425 12.3781 52.0862 12.4102C51.9299 12.4422 51.6855 12.47 51.5432 12.4719C51.4008 12.4737 50.8759 12.4781 50.3767 12.4815C49.8775 12.4849 49.1968 12.5028 48.864 12.5211C48.5312 12.5395 48.0018 12.5618 47.6875 12.5707C47.3732 12.5797 47.1529 12.5984 47.1981 12.6123C47.3389 12.6558 47.0027 12.6672 44.3745 12.7081C44.2349 12.7102 44.1328 12.7243 44.1476 12.7394C44.1625 12.7544 44.0385 12.7744 43.8721 12.7838C43.7057 12.7931 43.3977 12.8231 43.1876 12.8504C42.9129 12.8861 42.34 12.9053 41.1455 12.9186C40.2324 12.9289 39.3279 12.9359 39.1356 12.9342C38.9433 12.9325 38.5769 12.9518 38.3214 12.9771C38.0575 13.0031 37.8164 13.0115 37.7634 12.9965C37.6332 12.9595 37.1006 12.924 37.2173 12.9601C37.3402 12.9981 37.193 12.9961 36.7903 12.9544C35.9774 12.8702 32.1289 12.9342 31.7274 13.0386C31.6031 13.0709 31.5895 13.0927 31.6896 13.0991C31.7757 13.1045 31.8461 13.1205 31.8461 13.1346C31.8461 13.1487 31.7509 13.1532 31.6345 13.1447C31.5181 13.1361 31.378 13.1431 31.323 13.16C31.1764 13.2054 32.0829 13.1988 32.5722 13.151C32.7968 13.129 33.287 13.1015 33.6614 13.0898C34.0358 13.0781 34.4612 13.0643 34.6068 13.0591C34.7524 13.054 34.8715 13.0668 34.8715 13.0876C34.8715 13.1144 35.0596 13.1226 35.5144 13.1158C36.0114 13.1084 36.0965 13.1129 35.8894 13.1359C35.7421 13.1522 35.6556 13.1761 35.6972 13.189C35.787 13.2167 34.9412 13.2446 33.3039 13.2679C32.3845 13.281 32.0845 13.2758 31.9826 13.2451C31.887 13.2163 31.8501 13.2153 31.8484 13.2415C31.845 13.2947 30.9358 13.2861 30.61 13.2298C30.4579 13.2035 30.3334 13.1943 30.3334 13.2093C30.3334 13.2259 29.8424 13.2288 29.0854 13.2168C28.399 13.2058 27.3269 13.1897 26.7029 13.181C26.0789 13.1722 25.3448 13.1499 25.0715 13.1315C24.7982 13.113 24.4052 13.104 24.1981 13.1116C23.991 13.1192 23.7786 13.1121 23.7262 13.0959C23.6675 13.0777 23.7071 13.0754 23.8288 13.0898C23.952 13.1043 23.9901 13.1018 23.9296 13.0831C23.8157 13.0479 23.0943 13.016 22.2404 13.0084C21.7368 13.004 21.6326 12.9927 21.6189 12.941C21.6042 12.8855 21.7086 12.8765 22.6022 12.8568C23.152 12.8446 23.7721 12.8374 23.98 12.8409L24.3582 12.8471L23.9569 12.8054C23.2608 12.7332 22.5821 12.7027 21.2572 12.6841C20.55 12.6742 19.5289 12.6449 18.9881 12.6189C17.7443 12.5592 13.4284 12.5547 13.2402 12.6128C13.1754 12.6329 13.0423 12.6398 12.9445 12.6282C12.6917 12.5984 9.90797 12.5884 10.0027 12.6176C10.0912 12.645 10.0687 12.6455 8.08983 12.6569C6.69316 12.665 6.10362 12.6749 4.01235 12.7252C3.05877 12.7482 2.50125 12.735 1.95624 12.6768C1.728 12.6524 1.77719 12.6385 2.32686 12.5722C2.77021 12.5187 3.31184 12.4873 4.1294 12.4675C5.52461 12.4338 6.8558 12.3914 7.81489 12.35C8.38857 12.3253 8.503 12.31 8.44288 12.2661C8.39974 12.2346 8.28183 12.2188 8.15738 12.2279C8.04078 12.2365 7.94538 12.2291 7.94538 12.2115C7.94538 12.1939 8.0645 12.1793 8.2101 12.179C8.43634 12.1787 8.44183 12.1745 8.24792 12.1506C8.10442 12.1329 8.08877 12.1224 8.20536 12.1221C8.30703 12.1219 8.35051 12.1022 8.30231 12.0782C8.24149 12.0479 8.39242 12.0196 8.79869 11.9851L9.38245 11.9356L7.90444 11.9181C7.09154 11.9085 6.01941 11.902 5.52193 11.9036C5.02446 11.9052 4.61743 11.9049 4.61743 11.9029C4.61743 11.901 4.75357 11.8694 4.91997 11.8327C5.08637 11.796 5.22251 11.7749 5.22251 11.7856C5.22251 11.7963 5.3758 11.786 5.56315 11.7625C5.75051 11.739 6.40844 11.7049 7.02522 11.6866C7.642 11.6683 8.41624 11.6352 8.74574 11.613C9.07525 11.5908 9.59156 11.5722 9.8931 11.5716C10.7355 11.57 12.8576 11.4646 12.244 11.4548C12.1677 11.4536 11.9692 11.4466 11.8028 11.4393C11.6364 11.432 11.4171 11.4225 11.3155 11.4183C10.9694 11.4038 10.9473 11.3757 11.2668 11.3563C11.4422 11.3456 11.7635 11.3054 11.981 11.2669C12.1985 11.2284 12.5283 11.1969 12.714 11.1969C12.8996 11.1969 13.1292 11.1791 13.2241 11.1572C13.3659 11.1246 13.2412 11.1141 12.5241 11.0985C12.0442 11.0881 11.4473 11.0732 11.1977 11.0655C10.6039 11.0472 8.241 11.0499 8.07871 11.069C7.85976 11.0949 6.13014 11.1071 6.13014 11.0828C6.13014 11.07 6.23224 11.0433 6.35704 11.0236C6.48184 11.0038 6.58395 10.974 6.58395 10.9574C6.58395 10.9408 6.53915 10.9358 6.48441 10.9462C6.42967 10.9567 6.29353 10.9508 6.18187 10.9331C6.06946 10.9153 5.97887 10.9132 5.97887 10.9285C5.97887 10.9437 5.87676 10.9561 5.75196 10.9561C5.38866 10.9561 5.48832 10.9252 5.98755 10.883C6.54898 10.8355 6.46858 10.8156 5.56349 10.7779C4.73782 10.7436 4.58043 10.6897 5.1724 10.6442C5.78503 10.597 8.66332 10.5358 10.3087 10.5349C11.0799 10.5345 11.8915 10.5255 12.1122 10.5149L12.5135 10.4957L12.0825 10.4283C11.8455 10.3913 11.5364 10.3605 11.3957 10.3599C11.0372 10.3585 10.9282 10.3125 11.1205 10.2439C11.3236 10.1714 12.6394 10.041 13.1681 10.041C13.391 10.041 13.5199 10.0286 13.4668 10.0121C13.4153 9.99624 13.2484 9.98323 13.0958 9.98323C12.8396 9.98323 12.5546 9.91109 12.6107 9.86042C12.6678 9.80891 10.2677 9.86651 10.0669 9.92147C9.91348 9.96345 6.05071 10.0731 5.67097 10.0463L5.30935 10.0207L5.66112 9.98479C5.85458 9.96501 7.11138 9.91384 8.45401 9.87108C10.9109 9.79284 11.5088 9.7376 9.8989 9.7376C9.40423 9.7376 8.94915 9.72109 8.80121 9.69778C8.59108 9.66467 8.30014 9.66376 7.07459 9.69235C4.82108 9.74493 3.51141 9.78104 3.20428 9.79907C3.00079 9.81101 2.93959 9.80245 2.97737 9.76731C3.03242 9.7161 3.50043 9.65601 4.23413 9.60595C4.86566 9.56287 4.4731 9.52488 3.66561 9.55094C3.31553 9.56224 2.72277 9.58064 2.34837 9.59184L1.66766 9.6122L2.23492 9.50835C2.54692 9.45123 2.80219 9.39985 2.80219 9.39417C2.80219 9.38849 2.38007 9.37472 1.86415 9.36357C0.644326 9.3372 -0.00836913 9.27188 8.10262e-05 9.177C0.00451983 9.12696 0.983131 9.05984 1.8937 9.0471C2.26857 9.04186 3.11985 9.01692 3.78544 8.99166C4.45103 8.96641 5.47219 8.9399 6.05469 8.93275C6.63718 8.9256 7.52211 8.90605 8.0212 8.88931C11.1208 8.78533 11.8185 8.75974 11.9521 8.7451C12.0342 8.73611 11.7959 8.71454 11.4226 8.69718C11.0469 8.67971 10.7439 8.64867 10.7439 8.62766C10.7439 8.57903 12.2685 8.4734 13.6523 8.42616C14.3254 8.40318 14.8234 8.36899 14.9865 8.33457C15.1324 8.30376 15.6388 8.26491 16.1398 8.24608C17.2765 8.20336 17.2458 8.16284 16.0107 8.07565C15.7459 8.05696 15.5599 8.02663 15.5974 8.00824C15.6828 7.96641 16.3839 7.90258 16.7582 7.90258C16.9129 7.90258 16.9974 7.88958 16.946 7.87368C16.8946 7.85779 16.346 7.84478 15.7269 7.84478C14.7069 7.84478 14.2973 7.81524 14.7904 7.77723C15.231 7.74327 13.0233 7.76165 11.9329 7.80103C10.5751 7.85006 9.83626 7.82954 9.83626 7.74278C9.83626 7.70279 10.2314 7.65028 11.3211 7.54545C12.3476 7.44671 12.7445 7.39504 12.6069 7.37807C12.3455 7.34583 12.6035 7.31287 13.618 7.24885C15.0501 7.15849 16.1861 7.00703 16.037 6.92635C15.9351 6.87124 16.4933 6.84119 18.7993 6.7776C19.9455 6.74599 21.0934 6.70011 21.3502 6.67564C21.6069 6.65117 22.1505 6.62351 22.5582 6.61418C23.6822 6.58844 25.8329 6.4845 26.1693 6.43966C26.3334 6.41779 26.6738 6.39897 26.9257 6.39786C27.1775 6.39674 27.5198 6.38465 27.6862 6.37099C27.9271 6.35121 27.8654 6.34528 27.3836 6.3419C26.0943 6.33282 25.4101 6.30854 25.2391 6.26578C25.1224 6.23659 24.9401 6.22761 24.7097 6.23971C24.4072 6.25558 24.3955 6.25369 24.6257 6.22615C24.7728 6.20855 25.011 6.19785 25.1551 6.20237C25.2992 6.2069 25.5087 6.19965 25.6206 6.18625C25.741 6.17183 25.9765 6.17746 26.1972 6.20003C26.488 6.22976 26.6335 6.23064 26.8565 6.20403C27.0376 6.18243 27.1763 6.18029 27.2343 6.1982C27.2846 6.21376 27.7132 6.22696 28.1867 6.22753C28.6602 6.22809 29.2178 6.24713 29.4258 6.26985C29.8789 6.31933 30.0309 6.32296 30.0309 6.2843C30.0309 6.26841 29.9247 6.2554 29.795 6.2554C29.6653 6.2554 29.5965 6.24388 29.6421 6.22979C29.6876 6.2157 29.5824 6.19705 29.4081 6.18835C29.2339 6.17965 29.1209 6.15541 29.1571 6.13449C29.2238 6.09589 29.9014 6.07328 31.9974 6.03969C33.891 6.00935 34.4177 5.99302 34.4177 5.96465C34.4177 5.94973 34.3156 5.93752 34.1908 5.93752C34.0647 5.93752 33.9639 5.91184 33.9639 5.87973C33.9639 5.83734 34.0647 5.82193 34.3421 5.82193C34.7772 5.82193 34.8514 5.77743 34.4497 5.75736C34.301 5.74993 33.5351 5.75079 32.7479 5.75928C30.4552 5.784 29.5381 5.77577 29.0584 5.72619C28.8148 5.701 28.5719 5.68555 28.5186 5.69184C28.4653 5.69814 28.4498 5.66668 28.4841 5.62193C28.5591 5.52431 28.3464 5.50908 26.7932 5.50092C25.8636 5.49603 25.7915 5.49164 26.1145 5.45966C26.646 5.40704 28.5955 5.33152 29.7581 5.31852C30.3523 5.31188 30.9135 5.28815 31.1154 5.26113C31.5451 5.20363 31.8041 5.20292 32.0946 5.25842C32.2253 5.28339 32.5895 5.3015 32.9536 5.30114C34.0748 5.30004 38.2579 5.21877 38.8259 5.18705C39.3562 5.15744 39.3723 5.15266 39.2604 5.05788C39.1899 4.99815 39.2058 4.9477 39.3008 4.92955C39.4087 4.90894 39.404 4.88737 39.2858 4.86016C38.9244 4.77698 39.3841 4.75976 41.5917 4.77378C43.307 4.78467 43.8421 4.7787 44.1902 4.7448C44.5584 4.70892 46.2187 4.65944 47.3513 4.65058C47.5177 4.64928 47.9942 4.63659 48.4102 4.62238L49.1666 4.59654L48.4859 4.57552C48.1115 4.56396 46.9883 4.56113 45.9899 4.56924C44.9915 4.57735 43.562 4.58225 42.8132 4.58013C42.0644 4.57802 40.6009 4.59747 39.5609 4.62336C37.5031 4.67458 35.381 4.71041 34.4675 4.70936C34.1489 4.70899 33.8455 4.72005 33.7932 4.73393C33.741 4.74781 33.4857 4.76082 33.226 4.76285C32.9663 4.76488 32.7537 4.77731 32.7537 4.79047C32.7537 4.80363 32.6006 4.80616 32.4134 4.7961C32.1469 4.78179 32.1223 4.78441 32.2999 4.80816C32.4955 4.83432 32.4903 4.83857 32.2621 4.83895C32.1165 4.83922 31.9974 4.8539 31.9974 4.87162C31.9974 4.89141 31.8535 4.88583 31.6245 4.85717C31.2104 4.80534 31.0289 4.7972 31.1548 4.83611C31.2003 4.8502 31.1023 4.86849 30.9368 4.87675C30.7646 4.88536 30.6359 4.87749 30.6359 4.85836C30.6359 4.83902 30.3971 4.82495 30.0686 4.82495C29.7081 4.82495 29.5143 4.83761 29.5368 4.85969C29.5612 4.8836 29.3982 4.89017 29.014 4.88078C28.3842 4.86537 27.763 4.79804 27.7595 4.74481C27.7579 4.72206 27.7046 4.72489 27.6105 4.7527C27.4967 4.78635 27.4634 4.77784 27.4616 4.71468C27.4586 4.61045 27.7079 4.52152 28.003 4.52152C28.1297 4.52152 28.1914 4.50852 28.14 4.49262C28.0886 4.47673 28.1696 4.46273 28.3201 4.46151C28.8186 4.45748 29.1352 4.43997 29.4723 4.39778C29.7745 4.35996 30.4847 4.37452 30.4847 4.41854C30.4847 4.4265 30.3935 4.42633 30.282 4.41812C30.1705 4.40995 29.9833 4.42586 29.866 4.45347C29.6822 4.49675 29.6824 4.50027 29.8677 4.47895C30.0329 4.45992 30.0579 4.46645 29.976 4.50721C29.9123 4.53892 29.9476 4.56967 30.0637 4.58375C30.3531 4.61883 30.5968 4.61224 30.3336 4.57645C30.1628 4.55324 30.2505 4.54942 30.6877 4.56105C31.009 4.5696 31.3922 4.56176 31.5452 4.54351C31.7545 4.51853 31.8756 4.51905 32.0432 4.54564C32.2219 4.57396 32.2875 4.57083 32.3821 4.52945C32.4466 4.50123 32.4886 4.46839 32.4754 4.45647C32.4622 4.44455 32.5478 4.43479 32.6657 4.43479C32.7835 4.43479 32.9059 4.41992 32.9376 4.40174C32.9693 4.38357 33.195 4.36463 33.4391 4.35965C33.6832 4.35468 33.9589 4.33075 34.0519 4.30646C34.1448 4.28217 34.2761 4.27186 34.3435 4.28353C34.4109 4.2952 34.4233 4.282 34.3711 4.25418C34.2542 4.19193 34.5435 4.18611 34.6682 4.24821C34.7475 4.28767 34.7904 4.28716 35.0417 4.24373C35.3098 4.19736 35.3256 4.19769 35.3278 4.2497C35.3297 4.29582 35.3539 4.29772 35.4768 4.2614C35.6954 4.19678 35.6642 4.18271 35.2593 4.1633C35.0025 4.15099 34.8979 4.12714 34.9146 4.08477C34.9412 4.01728 35.4681 3.96682 36.0753 3.97364C36.6412 3.97999 37.1407 3.9428 37.1407 3.89432C37.1407 3.86312 37.2911 3.85396 37.708 3.85977C38.3177 3.86827 39.3434 3.83575 39.7123 3.79621C39.8956 3.77658 39.881 3.77146 39.6367 3.76965C39.4703 3.76842 38.9938 3.76131 38.5778 3.75386C37.2915 3.73082 35.5805 3.73154 34.9633 3.75539C34.5395 3.77176 34.4037 3.769 34.4795 3.74558C34.5446 3.72546 34.5037 3.71897 34.3725 3.72858C34.248 3.7377 34.0473 3.71125 33.8876 3.66471C33.6927 3.60788 33.6671 3.58196 33.7976 3.57364C33.9202 3.56584 33.8905 3.5486 33.7074 3.52115C33.4588 3.4839 33.4748 3.48161 33.8884 3.49534C34.138 3.50363 34.2572 3.50275 34.1532 3.49338C33.7701 3.45887 33.981 3.42337 34.5691 3.42337C34.9511 3.42337 35.175 3.43669 35.1765 3.45949C35.1782 3.48607 35.2132 3.48525 35.3089 3.45641C35.3906 3.43177 35.4743 3.42813 35.5341 3.44661C35.6356 3.478 35.8282 3.47555 36.301 3.43689C36.4631 3.42363 36.8195 3.41191 37.093 3.41085C37.7199 3.40842 37.9235 3.33667 37.3034 3.33667C37.0582 3.33667 36.8328 3.31788 36.7835 3.29333C36.7247 3.26408 36.7908 3.24998 36.9867 3.24998C37.1463 3.24998 37.3314 3.23372 37.3979 3.21386C37.5714 3.16205 38.1879 3.10069 38.3466 3.11943C38.4206 3.12818 38.524 3.12212 38.5763 3.10596C38.6285 3.08981 38.8591 3.07659 39.0887 3.07659C39.3183 3.07659 39.8759 3.05547 40.3277 3.02966C41.041 2.98892 41.1051 2.97956 40.8137 2.95868C40.6291 2.94546 39.366 2.9364 38.0069 2.93855C36.6477 2.94072 35.4467 2.93197 35.338 2.91914C35.2255 2.90585 35.0958 2.90957 35.0369 2.92779C34.9153 2.96536 30.2129 2.99385 30.096 2.95772C30.0549 2.94502 29.9157 2.94237 29.7866 2.95184C29.6276 2.96349 29.6066 2.97552 29.7217 2.9891C29.8152 3.00014 29.6847 3.00916 29.4319 3.00916C29.179 3.00916 28.9721 2.99674 28.9721 2.98154C28.9721 2.96635 28.8684 2.97037 28.7415 2.99048C28.6147 3.01058 28.4626 3.01779 28.4034 3.00649C28.3443 2.99519 28.4651 2.96135 28.6718 2.93128L29.0477 2.87661L28.6696 2.8905C28.3382 2.90267 28.3288 2.90099 28.5939 2.87693C29.0302 2.83733 29.7472 2.84143 30.1675 2.88593C30.5771 2.92929 31.0899 2.915 31.0899 2.86022C31.0899 2.83499 31.3886 2.82365 32.0731 2.82291C32.6901 2.82225 33.0564 2.83368 33.0564 2.8536C33.0564 2.87107 33.1415 2.86405 33.2455 2.838C33.3821 2.8038 33.7916 2.7855 34.7204 2.7721C35.4276 2.7619 36.4359 2.73521 36.961 2.71279C37.4862 2.69037 38.1328 2.67077 38.3981 2.66925C38.6633 2.66771 39.2207 2.64872 39.6367 2.62701C40.3459 2.59002 40.2658 2.58854 38.3509 2.60332C37.2277 2.61199 36.2066 2.6193 36.0818 2.61956C35.957 2.61982 34.3914 2.65052 32.6026 2.68777C30.8138 2.72503 28.8637 2.75948 28.2689 2.76434C27.6741 2.76919 27.2187 2.78292 27.2567 2.79484C27.2948 2.80676 27.0327 2.81656 26.6742 2.81662C26.3157 2.81662 25.4097 2.83558 24.6609 2.85861C23.3769 2.89809 20.3564 2.93881 20.7666 2.9111C20.8711 2.90404 20.9182 2.88637 20.8711 2.87184C20.8241 2.8573 20.9769 2.84479 21.2106 2.84402C21.4443 2.84328 21.8737 2.81796 22.1649 2.7878C22.4561 2.75764 22.8305 2.72083 22.9969 2.70601C23.5439 2.65729 32.4656 2.37533 34.5691 2.34029C35.1931 2.3299 36.997 2.29563 38.5778 2.26415C40.1586 2.23267 42.245 2.19429 43.2143 2.17887C44.1836 2.16344 45.3042 2.13199 45.7045 2.10898C46.2304 2.07875 46.4613 2.07608 46.5367 2.09937C46.6322 2.12891 48.2237 2.12082 50.15 2.08102C50.4412 2.075 51.3601 2.06195 52.1921 2.05202C53.685 2.0342 55.9595 1.97426 57.2326 1.91918C57.5921 1.90363 57.95 1.89842 58.0278 1.90762C58.1057 1.91681 59.1596 1.89568 60.3699 1.86066C62.1606 1.80883 62.6348 1.80356 62.9165 1.83237C63.1998 1.86133 63.5625 1.85647 64.9127 1.80564C67.1603 1.72102 70.0932 1.61102 71.5547 1.55651C72.2203 1.53169 73.1873 1.49294 73.7036 1.4704C74.2199 1.44786 74.8666 1.42948 75.1407 1.42955C75.4148 1.42955 75.9454 1.41097 76.3197 1.38808C76.9507 1.3495 78.2426 1.30668 81.6899 1.21007C83.4608 1.16044 83.8176 1.14898 85.6229 1.08379C86.4549 1.05375 87.8163 1.0077 88.6483 0.981471C89.4803 0.955238 90.3652 0.927325 90.6148 0.919442C92.3811 0.863679 92.7174 0.864716 93.0687 0.927009C93.2582 0.960621 93.4133 1.00288 93.4133 1.02093C93.4133 1.03897 93.4644 1.0522 93.5268 1.05031C93.5892 1.04845 93.7958 1.04845 93.9859 1.05031C94.275 1.05317 94.3068 1.06258 94.1803 1.10773C93.9951 1.17384 94.1433 1.20949 94.4205 1.16554C94.7324 1.11609 94.6613 1.16057 94.3025 1.23941C94.1143 1.28077 93.7362 1.31784 93.3883 1.32907C92.8804 1.34547 92.8224 1.35451 92.9851 1.39194C93.2292 1.44813 93.0229 1.45162 102.716 1.22756C103.382 1.21217 104.573 1.19335 105.364 1.18573C106.154 1.1781 107.584 1.15818 108.54 1.14145C109.497 1.12472 110.756 1.10588 111.339 1.09958C111.921 1.09329 112.667 1.07466 112.996 1.0582C113.325 1.04173 114.63 1.02746 115.896 1.02648C117.163 1.02551 118.289 1.01891 118.399 1.01183C118.671 0.994347 122.216 0.958872 123.06 0.965187C123.433 0.967987 123.842 0.988259 123.969 1.01025C124.254 1.05954 124.98 1.06448 128.357 1.04012C129.909 1.02891 131.334 1.00344 131.802 0.978541C132.413 0.946051 133.426 0.937157 136.113 0.940689C138.046 0.943244 141.26 0.935492 143.257 0.923501C147.303 0.899198 147.087 0.898923 151.274 0.933646C153.985 0.956128 155.549 0.957061 157.93 0.937619C158.346 0.934222 158.567 0.925494 158.422 0.918225C158.276 0.910959 158.157 0.891416 158.157 0.874803C158.157 0.854875 158.582 0.850324 159.405 0.86143C160.091 0.870689 162.151 0.891443 163.981 0.90755C165.811 0.923659 168.16 0.950179 169.2 0.966483C173.378 1.03199 174.971 1.05508 177.142 1.08154C182.569 1.14773 185.429 1.1741 188.411 1.18543C189.784 1.19065 191.486 1.20378 192.193 1.21461C192.9 1.22544 193.955 1.23313 194.538 1.2317C195.12 1.2303 196.277 1.2419 197.109 1.25753C197.941 1.27317 200.636 1.29168 203.097 1.29868C205.558 1.30568 207.873 1.32409 208.24 1.33958C208.608 1.35507 209.443 1.37479 210.097 1.3834C210.75 1.392 211.499 1.40574 211.761 1.41391C212.655 1.44187 214.052 1.46088 216.094 1.4729C217.892 1.48347 219.639 1.50887 222.22 1.56193C222.636 1.57048 223.215 1.58111 223.506 1.58554C223.797 1.58998 224.546 1.60196 225.17 1.61216C225.794 1.62236 226.849 1.63866 227.514 1.64839C228.18 1.65811 228.758 1.67007 228.8 1.67497C228.842 1.67987 229.263 1.69172 229.736 1.70134C230.209 1.71094 230.696 1.72612 230.818 1.73505C230.94 1.74398 231.642 1.75517 232.378 1.7599C234.4 1.7729 234.397 1.77282 234.397 1.81953C234.397 1.84337 234.469 1.86288 234.558 1.86288C234.646 1.86288 234.669 1.84767 234.608 1.82907C234.534 1.80602 234.583 1.80142 234.763 1.81462C234.908 1.82527 235.177 1.83398 235.361 1.83398C235.586 1.83398 235.702 1.85277 235.717 1.89178C235.744 1.96086 235.662 1.96417 235.359 1.90623C235.042 1.84574 234.688 1.85027 234.795 1.91345C234.847 1.94457 234.831 1.9516 234.752 1.93173C234.665 1.90972 234.239 1.90559 233.414 1.91876C231.994 1.94142 230.923 1.93519 228.952 1.89278C228.161 1.87577 227.14 1.85487 226.683 1.84632C226.225 1.83777 225.771 1.82582 225.674 1.81976C225.577 1.81369 225.458 1.82845 225.409 1.85256C225.344 1.88501 225.201 1.89131 224.856 1.87684C224.314 1.8541 223.965 1.84545 222.523 1.81893C221.94 1.80822 221.423 1.79467 221.373 1.78883C221.267 1.77637 219.244 1.77432 216.472 1.78387C214.713 1.78992 213.473 1.77338 212.548 1.73153C212.026 1.70794 208.379 1.69774 208.379 1.71987C208.379 1.73125 208.838 1.74995 209.4 1.76143C209.962 1.77292 210.557 1.78744 210.724 1.79371C211.891 1.83769 215.017 1.88698 217.531 1.90105C218.113 1.90431 218.662 1.91578 218.75 1.92654C218.896 1.94443 223.528 2.01344 223.777 2.00143C223.836 1.99856 224.395 2.00532 225.019 2.01644C225.983 2.03363 228.447 2.06822 229.065 2.07326C229.289 2.07507 229.315 2.11238 229.11 2.1366C228.963 2.15397 227.822 2.15799 226.79 2.14476C226.475 2.14072 226.162 2.12029 226.095 2.09937C226.003 2.07108 225.743 2.06635 225.079 2.08092C224.588 2.09169 224.141 2.10567 224.085 2.112C224.03 2.11832 223.881 2.10377 223.755 2.07966C223.628 2.05555 223.489 2.04696 223.445 2.06057C223.36 2.08698 220.307 2.07573 219.422 2.04575C219.13 2.03588 218.617 2.02513 218.281 2.02185C217.945 2.01857 217.519 2.00051 217.336 1.98172C217.068 1.95439 217.001 1.95528 217.001 1.98613C217.001 2.00884 216.799 2.02783 216.51 2.03229C215.314 2.05073 213.639 2.04898 212.312 2.02791C211.357 2.01276 210.95 2.01465 211.097 2.03357C211.694 2.10984 210.575 2.14746 208.833 2.10971C207.288 2.07625 207.012 2.07449 206.344 2.09384C206 2.10383 205.517 2.1017 205.271 2.08911C204.623 2.05595 201.256 1.99722 199.756 1.99294C199.049 1.99092 198.028 1.98037 197.487 1.9695C196.947 1.95864 195.857 1.94307 195.067 1.93492C194.277 1.92676 192.405 1.90096 190.907 1.8776C189.41 1.85423 187.182 1.82637 185.957 1.81569C183.961 1.79829 183.72 1.80127 183.633 1.8444C183.551 1.88542 183.288 1.89234 181.852 1.89129C180.925 1.89063 179.861 1.90061 179.486 1.9135L178.805 1.93695L179.94 1.96917C180.564 1.98689 181.313 2.00104 181.604 2.0006C181.895 2.00013 183.086 2.01994 184.251 2.04456C185.416 2.06917 187.628 2.10382 189.168 2.12157C190.707 2.13931 192.117 2.16005 192.303 2.16766C192.488 2.17527 194.019 2.19415 195.706 2.20963C198.738 2.23744 200.862 2.26013 202.479 2.28199C202.937 2.28817 204.507 2.3064 205.968 2.3225C207.429 2.3386 208.722 2.35756 208.842 2.36463C208.962 2.37171 209.196 2.38734 209.362 2.39936C209.529 2.41138 209.926 2.42482 210.246 2.42924C210.566 2.43365 210.907 2.45788 211.003 2.48308C211.142 2.51947 211.536 2.53044 212.918 2.53637C213.874 2.54048 214.725 2.55184 214.808 2.56161C214.891 2.57138 215.47 2.587 216.094 2.59633C219.077 2.64092 222.058 2.67713 223.43 2.68543C224.262 2.69047 226.032 2.71729 227.363 2.74505C228.694 2.7728 230.396 2.79983 231.145 2.8051C236.328 2.84161 240.467 2.8876 242.642 2.93282C243.39 2.94839 244.703 2.96949 245.558 2.97971C246.414 2.98993 247.149 3.00941 247.193 3.023C247.237 3.03659 247.048 3.04876 246.773 3.05005C246.497 3.05135 246.08 3.05506 245.845 3.05832C245.61 3.06158 245.388 3.0551 245.352 3.04392C245.316 3.03274 245.035 3.03686 244.728 3.05307C244.416 3.06953 243.731 3.07412 243.178 3.06348C242.633 3.05298 239.737 3.03931 236.742 3.03308C233.747 3.02686 230.173 3.01338 228.8 3.00311C226.353 2.98482 225.66 2.99601 227.265 3.02788C227.711 3.03673 228.108 3.05025 228.148 3.05794C228.256 3.07855 227.703 3.12954 227.244 3.14128C226.709 3.15496 226.541 3.19156 226.998 3.1947C227.199 3.19608 228.248 3.20933 229.33 3.22414C230.411 3.23895 232.539 3.25876 234.057 3.26815C236.553 3.28359 236.818 3.29008 236.818 3.33587C236.818 3.39943 237.427 3.41446 241.097 3.44149C242.577 3.45238 243.823 3.47227 243.866 3.48568C243.91 3.49909 244.244 3.51007 244.608 3.51007C245.851 3.51007 245.503 3.58986 243.976 3.65488C243.545 3.67322 242.966 3.68584 242.69 3.68292C240.848 3.66341 241.331 3.72031 243.398 3.76625C244.23 3.78475 245.387 3.80617 245.97 3.81387C246.552 3.82157 247.607 3.84083 248.314 3.85667C249.021 3.87252 250.451 3.89405 251.491 3.90453C252.772 3.91744 253.431 3.93581 253.533 3.96146C253.617 3.98244 254.157 4.00772 254.743 4.01814C255.326 4.02849 255.87 4.05283 255.953 4.07224C256.037 4.09165 256.602 4.1163 257.209 4.12702C257.817 4.13774 258.467 4.16561 258.653 4.18896C258.867 4.21571 259.521 4.2361 260.423 4.24411C262.366 4.26139 263.889 4.29396 263.973 4.32005C264.062 4.34747 262.738 4.38664 262.534 4.36261C262.451 4.35276 262.382 4.35702 262.382 4.37209C262.382 4.38715 262.621 4.40801 262.912 4.41845C263.487 4.43905 263.595 4.475 263.177 4.50602C262.682 4.54263 263.374 4.60061 264.929 4.65292C266.235 4.69685 267.061 4.75115 266.459 4.75356C265.894 4.75583 266.767 4.80676 267.675 4.82453C268.215 4.83507 268.736 4.85625 268.832 4.87158C268.929 4.88691 269.439 4.9127 269.965 4.92889C271.427 4.97387 271.411 5.01001 269.92 5.0324C269.362 5.04077 268.853 5.06556 268.7 5.09176C268.485 5.12852 268.222 5.13291 267.263 5.1158C265.312 5.081 264.926 5.08777 264.633 5.16191C264.49 5.19819 264.402 5.23698 264.438 5.2481C264.474 5.25921 264.962 5.27741 265.523 5.28854C266.084 5.29966 266.61 5.31897 266.694 5.33144C266.777 5.34392 267.168 5.36332 267.563 5.37456C268.648 5.40541 268.425 5.44623 267.173 5.44623C266.562 5.44623 266.012 5.45598 265.949 5.46791C265.886 5.47983 265.251 5.48958 264.539 5.48958C263.638 5.48958 263.224 5.50058 263.178 5.5257C263.134 5.55046 263.296 5.56187 263.693 5.56198C264.012 5.56204 264.512 5.57408 264.803 5.58865C265.094 5.60323 265.908 5.62339 266.613 5.63345C267.317 5.6435 267.97 5.6639 268.064 5.67877C268.157 5.69364 268.274 5.69824 268.322 5.68898C268.371 5.67972 268.569 5.68294 268.762 5.69614C269.034 5.71468 268.873 5.72435 268.055 5.73856C267.09 5.75533 265.99 5.7975 265.408 5.84002C265.038 5.867 265.613 5.89665 267.337 5.93958C268.189 5.96082 268.887 5.98591 268.887 5.99534C268.887 6.00477 269.329 6.0071 269.87 6.00052C270.66 5.99091 270.854 5.99685 270.854 6.0308C270.854 6.08318 270.375 6.16883 270.085 6.16824C269.907 6.16787 269.91 6.16296 270.097 6.13978C270.29 6.11594 270.284 6.1117 270.055 6.11133C269.906 6.11107 269.744 6.13107 269.695 6.15573C269.618 6.19394 269.345 6.19834 267.847 6.18547C265.969 6.16933 265.508 6.18846 265.854 6.26806C266.433 6.40139 268.795 6.54435 270.419 6.54435C271.4 6.54435 271.912 6.5794 271.912 6.64651C271.912 6.68011 271.67 6.6887 270.74 6.68816C270.095 6.68779 269.295 6.67377 268.963 6.65703C268.63 6.64029 267.062 6.6207 265.478 6.6135C262.678 6.60077 262.598 6.602 262.576 6.65851C262.554 6.71408 262.738 6.75411 263.063 6.76414C263.146 6.76671 263.799 6.78986 264.513 6.81557C266.851 6.89973 268.927 6.951 271.052 6.97705C273.021 7.00119 273.692 7.03428 273.489 7.09716C273.442 7.11151 273.339 7.11558 273.26 7.10619C273.18 7.0968 273.134 7.10635 273.157 7.12739C273.18 7.14856 273.081 7.16389 272.935 7.1617C272.79 7.15952 272.705 7.16785 272.745 7.1802C272.785 7.19256 272.586 7.21095 272.304 7.22107C271.693 7.24295 271.549 7.29504 271.861 7.38032C272.028 7.42576 272.046 7.45286 271.927 7.48021C271.732 7.52508 271.859 7.55578 272.24 7.55578C272.393 7.55578 272.517 7.56122 272.517 7.56787C272.517 7.57452 272.563 7.60245 272.618 7.62994C272.71 7.67587 272.608 7.67837 271.37 7.66077C270.628 7.65023 269.766 7.63388 269.454 7.62443C269.003 7.61076 268.887 7.61646 268.887 7.65233C268.887 7.67712 268.777 7.70913 268.643 7.72347C268.297 7.76049 268.505 7.927 268.939 7.96046C269.249 7.98439 269.251 7.98577 268.963 7.98945C268.66 7.99331 268.66 7.99331 268.963 8.01815C269.258 8.04238 268.845 8.05273 267.299 8.05995C266.653 8.06296 266.164 8.10186 266.164 8.15014C266.164 8.17594 266.007 8.19169 265.748 8.19193C265.519 8.19219 265.177 8.20025 264.988 8.20993C264.666 8.22644 264.661 8.22994 264.913 8.26641C265.06 8.2878 265.367 8.30571 265.595 8.30621C265.822 8.30674 266.458 8.35264 267.006 8.40827C267.56 8.46438 268.225 8.50942 268.499 8.50942C269.416 8.50942 270.846 8.54621 270.775 8.56798C270.737 8.57986 270.821 8.5878 270.963 8.58562C271.104 8.58344 271.244 8.60407 271.274 8.63146C271.343 8.69504 270.45 8.80466 269.989 8.78917C269.805 8.78297 269.629 8.79209 269.599 8.80942C269.527 8.8503 267.762 8.86186 267.056 8.82607C266.756 8.81087 265.207 8.79491 263.615 8.79061C260.921 8.78332 260.127 8.79808 261.134 8.83668C261.363 8.84546 261.857 8.86587 262.231 8.88205C262.605 8.89823 263.201 8.91204 263.555 8.91273C263.908 8.91342 264.198 8.92699 264.198 8.94288C264.198 8.95878 264.304 8.97178 264.434 8.97178C264.565 8.97178 264.811 8.98607 264.982 9.00353C265.289 9.03494 265.288 9.03565 264.934 9.06941C264.313 9.12851 264.506 9.18427 265.549 9.24761C266.084 9.28012 266.553 9.32563 266.592 9.34876C266.631 9.37188 266.723 9.39834 266.797 9.40756C267.028 9.43657 266.751 9.52572 266.489 9.50653C266.357 9.49683 266.291 9.49687 266.342 9.50663C266.393 9.51638 266.263 9.55714 266.053 9.5972C265.777 9.6499 265.493 9.67137 265.025 9.67483C264.668 9.67746 264.405 9.68812 264.438 9.69852C264.472 9.70891 263.848 9.71104 263.052 9.70325C261.894 9.69193 261.553 9.69787 261.35 9.7329C261.068 9.78154 259.583 9.8016 258.808 9.76722C258.512 9.75409 258.296 9.75814 258.232 9.77803C258.175 9.79552 257.968 9.80984 257.772 9.80984C257.317 9.80984 256.937 9.83756 256.937 9.87072C256.937 9.88492 257.035 9.89653 257.156 9.89653C257.277 9.89653 257.433 9.91625 257.504 9.94035C257.583 9.96754 258.175 10.0043 259.062 10.0373C260.809 10.1023 262.096 10.2016 261.974 10.2621C261.928 10.2854 261.793 10.2973 261.674 10.2886C261.556 10.28 261.497 10.2846 261.543 10.299C261.59 10.3134 261.449 10.3656 261.231 10.4151C260.939 10.4814 260.755 10.5003 260.531 10.4867C260.362 10.4765 260.265 10.48 260.312 10.4946C260.359 10.5091 260.16 10.5222 259.871 10.5238C259.581 10.5253 258.867 10.549 258.283 10.5763L257.221 10.626L257.559 10.6948C257.745 10.7325 257.96 10.7635 258.037 10.7635C258.114 10.7635 258.41 10.7846 258.696 10.8105C259.194 10.8557 259.205 10.8603 258.985 10.9246C258.84 10.9668 258.811 10.9983 258.907 11.0096C258.991 11.0195 259.016 11.041 258.962 11.0575C258.9 11.0769 258.818 11.0736 258.733 11.0483C258.647 11.0229 258.561 11.0195 258.487 11.0386C258.425 11.0548 258.169 11.0869 257.92 11.1099L257.466 11.1517L257.945 11.1615C258.463 11.1721 258.74 11.2463 258.365 11.2738C258.238 11.2832 258.096 11.2836 258.05 11.2748C258.004 11.266 257.74 11.2831 257.463 11.3129C257.186 11.3426 256.701 11.3762 256.384 11.3875C256.068 11.3988 255.718 11.4256 255.606 11.447C255.341 11.4977 255.237 11.4966 253.831 11.4279C252.57 11.3663 252.214 11.372 251.697 11.4624C251.405 11.5134 251.287 11.5159 250.496 11.488C249.46 11.4514 247.506 11.4467 247.618 11.4811C247.66 11.4943 248.192 11.5213 248.799 11.541C250.345 11.5914 250.519 11.6022 250.265 11.6322C249.825 11.6842 251.796 11.8069 253.722 11.8474C254.242 11.8583 254.701 11.8775 254.741 11.8899C254.782 11.9024 254.672 11.9473 254.497 11.9896C254.204 12.0608 254.199 12.0706 254.424 12.1181C254.558 12.1464 254.667 12.1767 254.667 12.1854C254.667 12.2211 252.106 12.1697 251.264 12.1171C250.053 12.0414 247.601 11.9862 247.375 12.0295C247.255 12.0524 247.254 12.0721 247.371 12.099C247.529 12.1354 247.772 12.151 249.789 12.2543C250.418 12.2865 250.734 12.3172 250.734 12.3462C250.734 12.3828 250.556 12.3866 249.612 12.3703C248.893 12.3578 248.455 12.3616 248.393 12.3808C248.34 12.3972 248.38 12.4107 248.482 12.4107C248.584 12.4107 248.632 12.4174 248.589 12.4256C248.487 12.445 246.345 12.3591 246.132 12.3271C245.964 12.302 243.755 12.237 243.284 12.2433C243.139 12.2453 243.02 12.2632 243.02 12.2831C243.02 12.303 242.984 12.3368 242.941 12.3582C242.867 12.3952 244.714 12.47 247.898 12.5589C248.376 12.5723 249.014 12.6029 249.316 12.627C249.617 12.651 250.077 12.6708 250.337 12.6709C251.022 12.6712 252.006 12.7284 251.847 12.7587C251.773 12.7728 250.852 12.788 249.8 12.7925C248.748 12.7971 247.898 12.803 247.912 12.8057C247.925 12.8084 248.273 12.8358 248.684 12.8667C249.4 12.9204 249.417 12.9242 249.09 12.9577C248.834 12.9839 248.56 12.9849 247.994 12.9617C247.074 12.924 246.953 12.9235 246.953 12.9574C246.953 12.972 247.156 12.9925 247.405 13.003C248.232 13.0377 248.053 13.0753 247.06 13.0753C246.483 13.0753 245.899 13.0936 245.616 13.1207C245.329 13.148 245.007 13.158 244.805 13.1457C244.373 13.1196 237.271 13.1096 237.354 13.1353C237.53 13.1896 235.545 13.1894 233.852 13.1347C230.423 13.0241 227.506 12.9613 225.624 12.9574C224.584 12.9553 223.018 12.9357 222.144 12.9139C221.271 12.892 219.714 12.8608 218.686 12.8444C217.657 12.828 216.772 12.8096 216.719 12.8035C216.666 12.7973 216.112 12.784 215.488 12.7739C214.864 12.7637 214.116 12.7499 213.824 12.7432C213.218 12.7292 210.458 12.6998 208.454 12.686C207.005 12.676 204.802 12.6495 203.311 12.624C202.812 12.6154 200.872 12.6029 199 12.5961C197.128 12.5893 194.916 12.5731 194.084 12.5601C193.252 12.5471 190.951 12.5377 188.97 12.5393C185.975 12.5417 185.346 12.5493 185.226 12.5848C185.105 12.6209 185.062 12.6212 184.947 12.587C184.856 12.5602 184.662 12.5524 184.364 12.5638C184.118 12.5732 183.843 12.5667 183.751 12.5492C183.66 12.5318 183.361 12.5149 183.086 12.5115C182.812 12.5082 182.451 12.4977 182.285 12.4883C181.378 12.437 180.433 12.4221 180.053 12.4531C179.747 12.4779 178.985 12.4486 179.09 12.416C179.129 12.404 178.4 12.3907 177.47 12.3864C174.967 12.3749 174.707 12.3697 174.424 12.3247C174.193 12.2882 174.17 12.2899 174.216 12.3399C174.251 12.378 174.194 12.3929 174.04 12.3859C173.915 12.3803 173.66 12.3754 173.473 12.3751C173.286 12.3748 173.133 12.3645 173.133 12.3523C173.133 12.3401 173.023 12.3221 172.889 12.3122C172.712 12.2993 172.67 12.3067 172.736 12.3395C172.798 12.3707 172.768 12.3776 172.639 12.362C172.536 12.3495 171.805 12.3351 171.015 12.3302C169.353 12.3197 169.6 12.3198 161.787 12.3251C158.501 12.3273 155.391 12.3197 154.877 12.3082C154.363 12.2967 153.827 12.2957 153.687 12.306C153.43 12.3249 148.488 12.3621 146.97 12.3566C145.783 12.3524 144.436 12.4857 145.185 12.5334C145.297 12.5405 145.219 12.561 144.996 12.5835C144.788 12.6044 144.58 12.6325 144.534 12.6459C144.367 12.6944 143.083 12.7215 142.718 12.6842C142.488 12.6607 141.879 12.6523 140.921 12.6593C140.124 12.6652 137.507 12.6768 135.104 12.6852C132.702 12.6936 130.571 12.7084 130.369 12.7181C130.167 12.7277 129.308 12.7377 128.46 12.7401C127.613 12.7425 126.783 12.7591 126.617 12.777C126.319 12.809 124.916 12.8614 124.682 12.8494C124.392 12.8345 123.855 12.8383 123.365 12.8585C123.073 12.8706 122.699 12.8782 122.533 12.8756C122.366 12.8729 122.094 12.8684 121.928 12.8656C121.761 12.8628 120.978 12.8758 120.188 12.8945C119.398 12.9131 118.457 12.9281 118.097 12.9278C117.737 12.9275 117.363 12.9395 117.265 12.9545C117.167 12.9696 116.866 12.9909 116.595 13.002C116.193 13.0184 116.104 13.0132 116.104 12.9732C116.104 12.9298 115.979 12.9266 115.007 12.9447C114.404 12.956 112.821 12.9682 111.49 12.9718C110.159 12.9755 108.703 12.9937 108.255 13.0124C107.807 13.0311 107.407 13.0464 107.366 13.0464C107.326 13.0464 107.378 13.0659 107.481 13.0897C107.585 13.1136 107.899 13.1331 108.181 13.1331C108.462 13.1331 108.691 13.1385 108.691 13.1451C108.691 13.1518 108.733 13.1778 108.783 13.2029C108.909 13.2656 108.483 13.2625 108.147 13.1983C107.957 13.162 107.866 13.158 107.821 13.1841C107.786 13.2039 107.696 13.2128 107.62 13.2038C107.544 13.1948 107.481 13.198 107.481 13.2108C107.481 13.2237 107.328 13.2358 107.141 13.2377C106.954 13.2397 105.916 13.256 104.834 13.274C103.752 13.292 101.574 13.3119 99.9934 13.3183C98.4126 13.3246 96.9491 13.337 96.7411 13.3457C96.0364 13.3752 92.1616 13.4437 90.0852 13.4633C86.2377 13.4997 83.3208 13.6048 82.7193 13.7288C82.5312 13.7675 82.1997 13.7989 81.9616 13.8003C80.0041 13.8125 77.2857 13.8514 76.0927 13.8844C75.5935 13.8982 74.7178 13.9175 74.1466 13.9272C73.5755 13.937 72.7664 13.9573 72.3486 13.9725C71.9308 13.9876 71.5642 14 71.5339 14C71.5037 14 71.4789 13.9667 71.4789 13.9261L71.479 13.9261ZM71.479 13.6632C71.479 13.6316 71.412 13.6292 71.1821 13.6527C71.0047 13.6708 70.9204 13.7006 70.9728 13.7267C71.0404 13.7603 71.1085 13.7627 71.2697 13.7372C71.3848 13.7189 71.479 13.6856 71.479 13.6632ZM96.968 13.2334C97.5599 13.1928 97.5449 13.1922 96.2873 13.2063C93.4075 13.2386 92.5056 13.2549 92.5056 13.2748C92.5056 13.3125 96.3315 13.277 96.968 13.2334ZM26.7029 12.8844C26.7029 12.8781 26.6008 12.873 26.476 12.873C26.3512 12.873 26.2491 12.8856 26.2491 12.901C26.2491 12.9164 26.3512 12.9215 26.476 12.9124C26.6008 12.9032 26.7029 12.8906 26.7029 12.8844ZM37.67 12.7863C37.7228 12.77 37.5989 12.7574 37.3853 12.7574C37.1773 12.7574 36.9651 12.7704 36.9137 12.7863C36.8609 12.8027 36.9848 12.8152 37.1984 12.8152C37.4064 12.8152 37.6186 12.8022 37.67 12.7863ZM30.4847 12.6385C30.4847 12.6087 30.3036 12.6059 29.9676 12.6305C29.588 12.6583 29.6899 12.693 30.1065 12.6778C30.3145 12.6702 30.4847 12.6525 30.4847 12.6385ZM116.079 12.6338C116.595 12.6063 116.666 12.5958 116.412 12.5842C116.008 12.566 111.195 12.6046 108.616 12.6468C107.915 12.6583 113.328 12.6863 114.44 12.6769C114.981 12.6724 115.718 12.653 116.079 12.6338ZM121.323 12.5448C121.489 12.5373 121.183 12.5322 120.642 12.5335C119.351 12.5366 118.84 12.5632 119.659 12.5846C119.991 12.5933 120.434 12.591 120.642 12.5795C120.85 12.5679 121.156 12.5524 121.323 12.5448V12.5448ZM24.7866 12.5533C25.0981 12.5516 25.096 12.5501 24.7463 12.5234C24.3338 12.4919 23.9801 12.5076 23.9801 12.5573C23.9801 12.5755 24.0875 12.5824 24.2193 12.5727C24.3509 12.563 24.6062 12.5543 24.7866 12.5533ZM123.595 12.5208C123.635 12.5131 123.366 12.5046 122.997 12.5019C122.627 12.4992 122.278 12.5116 122.22 12.5293C122.147 12.552 122.325 12.5577 122.819 12.5482C123.205 12.5409 123.555 12.5285 123.595 12.5208ZM241.885 12.1795C241.943 12.1616 241.702 12.1519 241.251 12.154C240.605 12.157 240.575 12.1599 240.978 12.1795C241.639 12.2117 241.781 12.2117 241.885 12.1795ZM8.7301 11.7552C8.6209 11.7468 8.49043 11.7478 8.44017 11.7575C8.3899 11.7671 8.47925 11.7739 8.63871 11.7726C8.81493 11.7712 8.85077 11.7644 8.7301 11.7552V11.7552ZM10.517 11.7171C10.821 11.6985 10.8358 11.6938 10.5926 11.6931C10.4262 11.6927 10.1539 11.7035 9.98754 11.7171C9.60207 11.7488 9.99976 11.7488 10.517 11.7171ZM12.5468 11.7285C12.6784 11.7188 12.786 11.6876 12.786 11.659C12.786 11.6147 12.6909 11.6093 12.1431 11.6224C11.448 11.639 10.9945 11.6882 11.5367 11.6882C11.7148 11.6882 11.9026 11.7012 11.9541 11.7171C12.0617 11.7504 12.2093 11.7532 12.5468 11.7285ZM258.298 11.2258C258.298 11.21 258.179 11.1971 258.033 11.1974C257.807 11.1978 257.802 11.2019 257.995 11.2258C258.281 11.2611 258.298 11.2611 258.298 11.2258ZM16.2936 10.0502C16.1844 10.0418 16.054 10.0429 16.0037 10.0525C15.9534 10.0621 16.0428 10.0689 16.2022 10.0676C16.3785 10.0663 16.4143 10.0594 16.2936 10.0502V10.0502ZM15.0551 9.96588C15.0551 9.91878 14.6344 9.91348 14.0817 9.95362C13.48 9.99732 13.6228 10.0281 14.3744 10.0167C14.8311 10.0097 15.0551 9.993 15.0551 9.96588ZM17.8649 9.98672C17.7138 9.94004 17.1729 9.92813 17.1729 9.97149C17.1729 9.99583 17.3282 10.0121 17.56 10.0121C17.7729 10.0121 17.9101 10.0007 17.8649 9.98672ZM16.7191 9.95434C16.8878 9.9335 16.8007 9.92621 16.3787 9.92588C16.0667 9.92562 15.8115 9.93845 15.8115 9.95434C15.8115 9.99115 16.4209 9.99115 16.7191 9.95434ZM268.887 6.57328C268.887 6.55738 268.819 6.54438 268.736 6.54438C268.652 6.54438 268.584 6.55738 268.584 6.57328C268.584 6.58917 268.652 6.60218 268.736 6.60218C268.819 6.60218 268.887 6.58917 268.887 6.57328ZM269.984 6.03398C269.88 6.02596 269.709 6.02596 269.605 6.03398C269.501 6.04199 269.587 6.04855 269.795 6.04855C270.003 6.04855 270.088 6.04199 269.984 6.03398ZM267.715 5.68595C267.527 5.67906 267.221 5.67906 267.034 5.68595C266.847 5.69283 267 5.69847 267.374 5.69847C267.749 5.69847 267.902 5.69283 267.715 5.68595ZM260.718 5.45266C260.718 5.44029 260.157 5.41474 259.47 5.3959C258.784 5.37705 258.059 5.35261 257.858 5.34159C257.632 5.32915 257.529 5.3324 257.587 5.35015C257.638 5.36588 258.278 5.39529 259.01 5.41551C259.741 5.43573 260.408 5.4564 260.491 5.46143C260.575 5.46648 260.66 5.47162 260.681 5.47287C260.701 5.47413 260.718 5.46503 260.718 5.45266ZM40.0904 5.18618C40.3605 5.164 40.3493 5.16112 39.9858 5.15931C39.7619 5.15819 39.5367 5.17028 39.4853 5.18618C39.3737 5.22068 39.6701 5.22068 40.0904 5.18618ZM259.659 5.01687C259.659 5.00322 258.976 4.97721 258.141 4.95907C256.261 4.91822 255.923 4.9174 256.115 4.95413C256.196 4.96954 257.009 4.99373 257.923 5.00788C258.836 5.02203 259.601 5.03543 259.622 5.03765C259.642 5.03988 259.659 5.03052 259.659 5.01687V5.01687ZM31.6036 4.67083C31.6465 4.65759 31.5824 4.64675 31.4613 4.64675C31.3401 4.64675 31.241 4.65759 31.241 4.67083C31.241 4.68407 31.3051 4.69491 31.3834 4.69491C31.4617 4.69491 31.5608 4.68407 31.6036 4.67083ZM51.8422 4.61738C51.733 4.60903 51.6025 4.61005 51.5522 4.61965C51.502 4.62926 51.5913 4.63609 51.7508 4.63483C51.927 4.63344 51.9629 4.6266 51.8422 4.61737V4.61738ZM28.3669 4.57932C28.3669 4.56343 28.2478 4.55062 28.1022 4.55086C27.8759 4.55123 27.8704 4.55538 28.0644 4.57932C28.3498 4.61456 28.3669 4.61456 28.3669 4.57932ZM28.972 4.53427C28.972 4.52726 28.9039 4.52152 28.8207 4.52152C28.7375 4.52152 28.6694 4.5353 28.6694 4.55213C28.6694 4.56896 28.7375 4.57469 28.8207 4.56487C28.9039 4.55505 28.972 4.54128 28.972 4.53427ZM37.5944 4.33306C37.8024 4.32195 38.4491 4.30201 39.0315 4.28875C39.6139 4.27548 40.3286 4.25088 40.6198 4.23408C40.911 4.21728 41.1492 4.20463 41.1492 4.20596C41.1492 4.21703 42.1854 4.15519 42.6998 4.11342C43.4802 4.05004 43.5295 4.00136 42.8132 4.00136C42.4435 4.00136 42.2838 3.98829 42.2838 3.95801C42.2838 3.91357 42.9608 3.896 44.0846 3.91128C44.5742 3.91794 45.9711 3.86813 46.2909 3.83262C46.5298 3.8061 45.7664 3.77619 44.7706 3.77306C44.1228 3.77101 43.5708 3.79137 42.8889 3.84242C42.3581 3.88216 41.7836 3.91487 41.6122 3.91511C41.3639 3.91548 41.3452 3.92095 41.5202 3.9421C41.641 3.9567 41.7942 3.96224 41.8606 3.9544C41.9269 3.94656 41.9812 3.95246 41.9812 3.96748C41.9812 3.99335 41.6501 4.01162 40.4947 4.0495C40.2179 4.05857 39.9547 4.0843 39.9098 4.10666C39.843 4.13991 39.7848 4.1406 39.5906 4.11047C39.3916 4.0796 39.3675 4.08101 39.4421 4.11914C39.5073 4.15245 39.4437 4.16338 39.2057 4.15985C39.0267 4.1572 38.6543 4.16682 38.3782 4.18124C38.0302 4.19942 37.8099 4.19693 37.6597 4.17311C37.5379 4.1538 37.4431 4.15125 37.4431 4.16729C37.4431 4.19917 36.2905 4.29034 35.8875 4.29034C35.7447 4.29034 35.6279 4.30812 35.6279 4.32985C35.6279 4.35927 35.8307 4.3673 36.4221 4.36131C36.8588 4.35688 37.3864 4.34417 37.5944 4.33306V4.33306ZM43.8172 3.28504C43.708 3.2781 43.5468 3.28614 43.4589 3.30294C43.3467 3.32439 43.4057 3.32815 43.6573 3.31558C43.8619 3.30536 43.9305 3.29226 43.8172 3.28504ZM226.531 3.17055C226.531 3.15863 226.324 3.14611 226.072 3.14273C225.809 3.13921 225.651 3.14848 225.703 3.1644C225.808 3.197 226.531 3.20237 226.531 3.17055ZM44.2503 2.9885L44.6285 2.98627L44.2756 2.95925C43.877 2.92873 43.1914 2.95224 43.1914 2.99644C43.1914 3.01255 43.3435 3.01778 43.5318 3.00815C43.719 2.99856 44.0423 2.98972 44.2503 2.9885ZM225.321 2.99475C225.321 2.98151 225.219 2.97067 225.094 2.97067C224.969 2.97067 224.867 2.98151 224.867 2.99475C224.867 3.00799 224.969 3.01883 225.094 3.01883C225.219 3.01883 225.321 3.00799 225.321 2.99475ZM225.954 2.99909C225.845 2.99074 225.715 2.99177 225.665 3.00137C225.614 3.01097 225.704 3.0178 225.863 3.01655C226.039 3.01516 226.075 3.00831 225.954 2.99909V2.99909ZM46.8503 2.94129C46.7411 2.93294 46.6106 2.93397 46.5603 2.94357C46.5101 2.95317 46.5994 2.96001 46.7589 2.95875C46.9351 2.95737 46.9709 2.95052 46.8503 2.94129V2.94129ZM29.8796 2.90324C29.8796 2.88734 29.8115 2.87434 29.7283 2.87434C29.6451 2.87434 29.5771 2.88734 29.5771 2.90324C29.5771 2.91913 29.6451 2.93214 29.7283 2.93214C29.8115 2.93214 29.8796 2.91913 29.8796 2.90324ZM33.8126 2.82746C33.8126 2.79508 33.5285 2.82347 33.4472 2.86398C33.3675 2.90364 33.3896 2.90543 33.5823 2.87489C33.709 2.8548 33.8126 2.83345 33.8126 2.82746ZM35.3253 2.83099C35.3253 2.80715 35.2986 2.78765 35.2659 2.78765C35.2332 2.78765 35.1673 2.80715 35.1194 2.83099C35.0715 2.85484 35.0982 2.87434 35.1788 2.87434C35.2594 2.87434 35.3253 2.85484 35.3253 2.83099ZM233.367 1.84317C233.258 1.83482 233.127 1.83585 233.077 1.84545C233.027 1.85505 233.116 1.86188 233.275 1.86063C233.452 1.85924 233.487 1.85239 233.367 1.84317V1.84317ZM94.0874 1.25805C94.1353 1.24325 94.1124 1.22382 94.0366 1.21487C93.9608 1.20591 93.8597 1.21802 93.812 1.24177C93.7179 1.28859 93.9452 1.30202 94.0874 1.25805ZM22.286 13.6605C22.199 13.6406 22.1872 13.624 22.2597 13.6235C22.3323 13.623 22.2644 13.6085 22.1088 13.5912C21.7097 13.5469 22.0633 13.509 22.8455 13.5121C23.2541 13.5137 23.3523 13.5206 23.1481 13.5333C22.8598 13.5512 22.645 13.6248 22.8833 13.624C23.3275 13.6224 23.6483 13.5847 23.5791 13.5421C23.5115 13.5005 23.5295 13.5008 23.7197 13.5449C23.978 13.6048 25.1291 13.6158 25.2286 13.5594C25.2792 13.5307 25.3407 13.5309 25.5275 13.5603C25.8219 13.6067 25.9957 13.7195 25.7456 13.7019C25.6481 13.695 25.5905 13.6719 25.6174 13.6505C25.6517 13.6233 25.5822 13.6261 25.3865 13.66C25.1629 13.6986 24.8384 13.7072 23.7754 13.7025C22.9301 13.6988 22.3866 13.6834 22.2861 13.6605L22.286 13.6605ZM20.2095 13.5968C20.008 13.573 20.1049 13.5088 20.3423 13.5088C20.5149 13.5088 20.6664 13.5904 20.5248 13.6071C20.4621 13.6145 20.3202 13.6099 20.2095 13.5968ZM23.4101 13.3643C23.2428 13.3131 23.2602 13.306 23.5628 13.3021C23.7507 13.2997 24.0065 13.2956 24.1313 13.293C24.5348 13.2846 24.6108 13.311 24.3446 13.3672C24.0084 13.4381 23.6478 13.437 23.4101 13.3643ZM115.045 13.1493C115.045 13.1423 115.113 13.1285 115.196 13.1187C115.279 13.1088 115.347 13.1146 115.347 13.1314C115.347 13.1482 115.279 13.162 115.196 13.162C115.113 13.162 115.045 13.1563 115.045 13.1493ZM116.82 13.1295C116.922 13.1098 117.044 13.1009 117.091 13.1098C117.138 13.1187 117.054 13.1348 116.904 13.1457C116.689 13.1614 116.671 13.1581 116.82 13.1295ZM35.6279 13.05C35.6279 13.036 35.7329 13.0079 35.8612 12.9876C36.0426 12.9588 36.1349 12.9583 36.2759 12.9853C36.417 13.0122 36.4071 13.026 36.2317 13.0472C35.9464 13.0816 35.6279 13.0831 35.6279 13.05V13.05ZM206.412 12.7863C206.412 12.7704 206.51 12.7574 206.63 12.7574C206.75 12.7574 206.89 12.7704 206.942 12.7863C206.993 12.8022 206.895 12.8152 206.724 12.8152C206.552 12.8152 206.412 12.8022 206.412 12.7863ZM203.841 12.7556C203.841 12.7227 204.247 12.7194 204.351 12.7514C204.391 12.764 204.293 12.7762 204.133 12.7785C203.972 12.7809 203.841 12.7705 203.841 12.7556ZM53.8248 12.709C53.6887 12.6412 53.8961 12.6313 54.419 12.6805C54.6917 12.7062 54.8468 12.7292 54.7636 12.7316C54.1261 12.7499 53.8958 12.7444 53.8248 12.709ZM184.629 12.6418C184.629 12.6259 184.659 12.6129 184.696 12.6129C184.733 12.6129 184.805 12.6259 184.856 12.6418C184.908 12.6577 184.878 12.6707 184.789 12.6707C184.701 12.6707 184.629 12.6577 184.629 12.6418ZM182.448 12.6168C182.383 12.5967 182.371 12.5724 182.421 12.5629C182.556 12.537 182.704 12.575 182.631 12.6169C182.579 12.6463 182.544 12.6463 182.448 12.6168V12.6168ZM183.003 12.6227C182.693 12.5988 182.789 12.5593 183.117 12.5757C183.283 12.584 183.419 12.6023 183.419 12.6163C183.419 12.6439 183.301 12.6457 183.003 12.6227ZM255.525 12.4781C255.351 12.4448 255.415 12.4107 255.651 12.4107C255.776 12.4107 255.878 12.4302 255.878 12.454C255.878 12.4991 255.699 12.5113 255.525 12.4781ZM67.7923 12.3011C67.7515 12.2885 67.8511 12.2763 68.0135 12.2739C68.1759 12.2716 68.2693 12.2819 68.221 12.2968C68.1138 12.3299 67.8928 12.3321 67.7923 12.3011ZM69.1558 12.2514C69.2034 12.2277 69.3541 12.2074 69.4908 12.2061C69.6275 12.2049 70.0457 12.1981 70.4201 12.1909C70.911 12.1815 71.0375 12.186 70.8739 12.2071C70.6867 12.2313 70.6845 12.2365 70.8613 12.2368C70.9791 12.2371 71.0332 12.2454 70.9813 12.2553C70.9295 12.2652 70.4781 12.2781 69.9782 12.2839C69.221 12.2927 69.0838 12.2873 69.1558 12.2514ZM7.4224 12.1815C7.31053 12.1469 7.5951 12.1126 7.79659 12.1364C7.96576 12.1564 7.8547 12.2084 7.64284 12.2084C7.56947 12.2084 7.47027 12.1963 7.4224 12.1815ZM8.85301 11.4298C8.85301 11.4149 8.9203 11.3947 9.00255 11.385C9.0883 11.3749 9.11366 11.3865 9.062 11.4122C8.96144 11.4622 8.85301 11.4714 8.85301 11.4298ZM9.96233 11.415C9.96233 11.3918 10.0202 11.3797 10.0909 11.3881C10.1615 11.3964 10.1802 11.4153 10.1324 11.4301C10.01 11.4679 9.96233 11.4637 9.96233 11.415ZM273.576 7.6425C273.452 7.62709 273.417 7.61448 273.501 7.61448C273.584 7.61448 273.754 7.62709 273.879 7.6425C274.004 7.65791 274.038 7.67051 273.954 7.67051C273.871 7.67051 273.701 7.65791 273.576 7.6425ZM25.0389 5.4979C25.0389 5.48539 25.1751 5.47515 25.3415 5.47515C25.5079 5.47515 25.644 5.48735 25.644 5.50225C25.644 5.51716 25.5079 5.5274 25.3415 5.525C25.1751 5.52261 25.0389 5.51041 25.0389 5.4979ZM31.3736 5.07351L31.0189 5.01863L31.9242 4.99568C32.422 4.98305 33.1867 4.97198 33.6234 4.97108C34.0601 4.97017 34.4174 4.96059 34.4175 4.94978C34.4177 4.92728 35.3187 4.97209 35.4593 5.0016C35.5104 5.01232 35.3423 5.01347 35.0856 5.00417C34.7983 4.99375 34.4494 5.00437 34.178 5.03177C33.9354 5.05626 33.3796 5.07755 32.9428 5.07909C32.506 5.08063 32.1487 5.09235 32.1487 5.10513C32.1487 5.14656 31.7374 5.12978 31.3736 5.07351V5.07351ZM29.4668 5.08202C29.517 5.07242 29.6475 5.07139 29.7567 5.07974C29.8774 5.08897 29.8415 5.09582 29.6653 5.0972C29.5058 5.09845 29.4165 5.09163 29.4668 5.08202V5.08202ZM26.7149 4.68287C26.7083 4.6524 26.744 4.63533 26.7943 4.64494C26.8446 4.65454 26.85 4.67947 26.8063 4.70033C26.758 4.72338 26.7221 4.71653 26.7149 4.68287H26.7149ZM30.8462 4.43998C30.8884 4.42692 30.7837 4.39345 30.6134 4.3656C30.3088 4.31578 30.3189 4.31361 31.2398 4.23041C32.3491 4.13019 32.4512 4.12794 32.4512 4.20364C32.4512 4.23925 32.3496 4.26161 32.1865 4.26188C31.9719 4.26225 31.9623 4.26723 32.1358 4.2882C32.2535 4.30243 32.4747 4.30948 32.6274 4.30387C32.7801 4.29825 32.905 4.3069 32.905 4.32311C32.905 4.33931 32.6838 4.35024 32.4134 4.34742C32.143 4.34459 31.7856 4.3438 31.6192 4.34565C31.3672 4.34846 31.3545 4.3537 31.5436 4.37704C31.7375 4.40098 31.732 4.40511 31.5058 4.40549C31.3602 4.40575 31.241 4.41894 31.241 4.43483C31.241 4.45073 31.1349 4.46373 31.0052 4.46373C30.8755 4.46373 30.8039 4.45305 30.8462 4.43999V4.43998ZM32.7804 4.20679C32.6283 4.18884 32.6343 4.17678 32.8087 4.14912C33.0535 4.11031 33.2486 4.14421 33.0801 4.19627C33.0201 4.21484 32.8879 4.21948 32.7804 4.20679ZM27.5349 2.98993C27.4835 2.97403 27.5435 2.96103 27.6683 2.96103C27.7931 2.96103 27.9373 2.97403 27.9887 2.98993C28.0401 3.00582 27.9801 3.01883 27.8553 3.01883C27.7305 3.01883 27.5863 3.00582 27.5349 2.98993ZM30.6331 2.86055C30.8509 2.8104 30.9385 2.80519 30.9385 2.84235C30.9385 2.85654 30.8268 2.87634 30.6902 2.88635C30.4826 2.90157 30.4732 2.89735 30.6331 2.86055ZM244.424 2.3942C244.601 2.36032 245.57 2.33378 245.765 2.35744C245.877 2.37105 245.901 2.38368 245.818 2.3855C245.004 2.40333 244.355 2.40738 244.424 2.3942ZM243.505 2.35855C243.38 2.34331 243.474 2.33491 243.77 2.33491C244.023 2.33491 244.23 2.34575 244.23 2.35899C244.23 2.38975 243.76 2.38946 243.505 2.35852V2.35855ZM239.616 2.32165C238.969 2.29396 237.396 2.2741 234.459 2.2565C233.453 2.25047 232.485 2.23066 232.307 2.21248C232.113 2.19269 231.436 2.18262 230.619 2.1874C229.868 2.1918 229.254 2.19243 229.254 2.18881C229.254 2.17875 230.134 2.09407 230.239 2.09407C230.289 2.09407 230.289 2.10708 230.237 2.12297C230.183 2.13983 230.337 2.15187 230.607 2.15187C230.861 2.15187 231.069 2.13886 231.069 2.12297C231.069 2.10708 231.141 2.09407 231.23 2.09407C231.318 2.09407 231.339 2.11033 231.276 2.13019C231.192 2.1569 231.219 2.15869 231.381 2.13705C231.501 2.12095 231.735 2.10928 231.901 2.1111C232.068 2.11292 232.565 2.11634 233.007 2.11869C233.449 2.12104 233.778 2.13272 233.74 2.14464C233.701 2.15656 234.089 2.16441 234.601 2.16209C235.113 2.15973 235.651 2.16997 235.797 2.18478C235.973 2.20275 236.061 2.20118 236.061 2.18008C236.061 2.16269 236.144 2.15817 236.244 2.17005C236.345 2.18192 237.008 2.19519 237.719 2.19952C238.43 2.20386 239.011 2.20895 239.011 2.21083C239.011 2.21272 239.351 2.21847 239.767 2.22362C240.183 2.22877 240.541 2.23586 240.562 2.23939C240.597 2.24539 240.753 2.25415 241.015 2.26488C241.136 2.2698 240.426 2.35372 240.297 2.34981C240.255 2.34853 239.949 2.33587 239.616 2.32164L239.616 2.32165ZM233.49 2.17717C233.49 2.16327 233.358 2.15189 233.196 2.15189C233.035 2.15189 232.866 2.16327 232.821 2.17717C232.776 2.19108 232.908 2.20246 233.114 2.20246C233.321 2.20246 233.49 2.19108 233.49 2.17717ZM241.581 2.09362C241.529 2.07747 241.423 2.07173 241.345 2.08088C241.268 2.09002 241.204 2.0845 241.204 2.06861C241.204 2.01266 241.448 2.01177 241.629 2.06707C241.73 2.09783 241.781 2.123 241.744 2.123C241.707 2.123 241.633 2.10978 241.581 2.09363V2.09362ZM238.343 1.98091C238.183 1.95044 238.021 1.93155 237.983 1.93892C237.944 1.94629 237.581 1.95668 237.176 1.96201C236.474 1.97124 235.604 1.91171 235.825 1.86956C236.001 1.83582 237.046 1.84371 237.274 1.88051C237.508 1.91819 237.934 1.91944 238.124 1.88299C238.285 1.85233 239.056 1.85905 239.163 1.89205C239.308 1.93696 239.092 2.03628 238.85 2.03628C238.73 2.03628 238.502 2.01135 238.343 1.98089V1.98091ZM239.904 2.00293C239.84 1.98302 239.862 1.97738 239.96 1.98895C240.051 1.99962 240.167 1.99512 240.22 1.97897C240.361 1.9354 240.549 1.9434 240.549 1.99295C240.549 2.04385 240.061 2.05141 239.904 2.00293ZM63.0488 1.78766C63.0991 1.77805 63.2295 1.77702 63.3387 1.78538C63.4594 1.7946 63.4236 1.80145 63.2473 1.80284C63.0879 1.80409 62.9985 1.79726 63.0488 1.78766V1.78766ZM93.5645 0.96707C93.5645 0.951178 93.5945 0.938173 93.6312 0.938173C93.6679 0.938173 93.7399 0.951178 93.7914 0.96707C93.8428 0.982966 93.8128 0.995969 93.7247 0.995969C93.6366 0.995969 93.5645 0.982966 93.5645 0.96707ZM97.0918 0.969995C96.8476 0.935722 96.906 0.88647 97.1749 0.899901C97.3464 0.908471 97.4564 0.896682 97.4723 0.868043C97.4862 0.843039 97.5088 0.803076 97.5227 0.779235C97.5366 0.755394 97.6727 0.734265 97.8252 0.732277C97.9778 0.730282 98.1536 0.725981 98.216 0.722699C98.2784 0.719411 98.5337 0.706244 98.7833 0.693426C99.3383 0.664929 99.6398 0.622359 99.529 0.588126C99.4835 0.574033 99.5806 0.562503 99.745 0.562503C99.9094 0.562503 100.078 0.578756 100.121 0.598625C100.174 0.623724 100.235 0.625282 100.322 0.603743C100.544 0.548642 101.008 0.531445 101.252 0.569233C101.448 0.599563 101.466 0.598806 101.359 0.564815C101.261 0.533646 101.293 0.528435 101.494 0.543141C101.639 0.553792 101.85 0.562502 101.962 0.562502C102.075 0.562502 102.207 0.587174 102.258 0.617331C102.316 0.652575 102.446 0.667302 102.621 0.658566C103.007 0.639277 102.967 0.567825 102.578 0.581509C102.27 0.59232 102.27 0.591925 102.565 0.565125C102.731 0.550023 103.098 0.536752 103.38 0.535635C103.661 0.53451 104.308 0.52085 104.817 0.505259C106.135 0.464859 109.45 0.39406 110.961 0.374042C111.668 0.364673 112.553 0.35185 112.927 0.345548C113.716 0.332273 115.273 0.311141 117.314 0.286017C118.104 0.276287 119.193 0.261164 119.734 0.252412C121.034 0.231378 123.08 0.229809 123.365 0.249638C123.49 0.258328 123.881 0.275421 124.235 0.287628C124.588 0.299832 124.877 0.319387 124.877 0.331082C124.877 0.342775 124.709 0.384494 124.503 0.423785C124.199 0.481948 123.988 0.4947 123.368 0.492384C122.916 0.490672 122.628 0.501403 122.658 0.518803C122.686 0.534895 123.233 0.549133 123.874 0.55044C124.88 0.552486 125.55 0.589877 125.321 0.631187C125.219 0.649671 123.213 0.667935 123.214 0.650381C123.214 0.641786 122.755 0.638822 122.193 0.643793C121.631 0.648766 120.781 0.641025 120.304 0.626558C119.826 0.612104 119.403 0.606448 119.364 0.613991C119.324 0.621528 119 0.63044 118.643 0.633794C118.287 0.637149 117.807 0.649938 117.577 0.662221C117.328 0.675504 117.081 0.672212 116.967 0.654097C116.861 0.637346 116.116 0.620634 115.312 0.616959C114.316 0.612415 113.88 0.600352 113.947 0.579169C114 0.562063 113.928 0.565969 113.787 0.587854C113.611 0.615225 113.338 0.621778 112.915 0.608846C112.511 0.596501 112.333 0.600202 112.395 0.619626C112.503 0.652735 112.483 0.653368 111.112 0.660405C110.571 0.663179 109.975 0.675676 109.788 0.688174C109.601 0.700672 109.448 0.700267 109.448 0.687278C109.448 0.674287 109.278 0.663657 109.07 0.663657C108.862 0.663657 108.692 0.67341 108.692 0.685331C108.692 0.697251 108.585 0.707004 108.456 0.707004C108.326 0.707004 108.255 0.696022 108.299 0.682591C108.404 0.65014 106.85 0.697799 106.737 0.730491C106.531 0.790338 103.7 0.850986 103.7 0.795562C103.7 0.778648 103.627 0.7648 103.539 0.7648C103.451 0.7648 103.418 0.776908 103.466 0.791703C103.603 0.834 103.255 0.860041 103.03 0.824349C102.879 0.800406 102.808 0.80187 102.751 0.830092C102.702 0.854459 102.453 0.86559 102.053 0.861311C101.711 0.857658 101.431 0.866812 101.431 0.881656C101.431 0.929445 100.653 0.898062 100.502 0.844179C100.422 0.815526 100.291 0.799845 100.21 0.809335C100.13 0.818825 100.099 0.837334 100.141 0.850463C100.184 0.863593 100.119 0.881635 99.9974 0.890552C99.8758 0.899472 99.7353 0.894128 99.6853 0.878673C99.6299 0.861544 99.4361 0.86743 99.1889 0.89375C98.7236 0.943282 97.2763 0.995909 97.0918 0.970008L97.0918 0.969995ZM94.9259 0.838739C94.9259 0.787979 95.0167 0.780507 95.1463 0.820587C95.1942 0.835383 95.1642 0.855658 95.0796 0.865639C94.9951 0.875622 94.9259 0.863545 94.9259 0.838739ZM95.4959 0.78882C95.5839 0.772026 95.7451 0.763972 95.8542 0.770921C95.9675 0.778136 95.8989 0.791236 95.6944 0.801454C95.4428 0.814023 95.3837 0.810261 95.4959 0.78882ZM147.606 0.715496C147.419 0.708608 147.265 0.693046 147.265 0.680915C147.265 0.645551 147.923 0.664774 147.988 0.702041C148.02 0.720658 148.024 0.734117 147.997 0.731952C147.969 0.72978 147.793 0.722384 147.606 0.715496H147.606ZM144.467 0.649194C144.883 0.615059 145.122 0.615059 144.845 0.649194C144.72 0.664604 144.516 0.676497 144.391 0.67562C144.242 0.674573 144.267 0.665572 144.467 0.649194ZM145.383 0.651884C145.337 0.637472 145.435 0.632488 145.601 0.640808C145.954 0.658453 145.999 0.67809 145.686 0.67809C145.566 0.67809 145.43 0.666297 145.383 0.651884ZM125.909 0.586488C125.671 0.540769 125.779 0.537598 127.649 0.535447C128.745 0.534169 129.794 0.527548 129.98 0.520701C130.165 0.513854 130.352 0.519167 130.395 0.532501C130.438 0.545837 130.682 0.553994 130.937 0.550625C131.625 0.541524 131.628 0.583596 130.94 0.596132C130.615 0.602059 130.381 0.596901 130.42 0.584702C130.545 0.546318 130.312 0.56056 130.075 0.605844C129.817 0.655006 129.178 0.663857 129.037 0.620216C128.975 0.600975 128.844 0.601422 128.647 0.621545C128.312 0.655785 127.997 0.632517 128.151 0.584925C128.218 0.564113 128.181 0.562134 128.04 0.579038C127.923 0.593052 127.453 0.611428 126.995 0.619876C126.34 0.63196 126.109 0.624853 125.909 0.586484V0.586488ZM138.038 0.620289C138.038 0.604397 138.068 0.591394 138.105 0.591394C138.141 0.591394 138.213 0.604397 138.265 0.620289C138.316 0.636184 138.286 0.649188 138.198 0.649188C138.11 0.649188 138.038 0.636184 138.038 0.620289ZM131.987 0.562494C131.851 0.545663 131.832 0.534303 131.94 0.534038C132.039 0.533776 132.163 0.546599 132.214 0.562494C132.33 0.598373 132.278 0.598373 131.987 0.562494ZM191.071 0.558553C191.149 0.53436 190.573 0.505901 190.456 0.528201C190.294 0.55927 189.621 0.565139 189.621 0.535487C189.621 0.517146 189.191 0.512727 188.449 0.523453C187.539 0.536606 187.158 0.529828 186.747 0.493226C186.456 0.467281 186.332 0.452015 186.473 0.459302C186.613 0.466589 186.749 0.461244 186.775 0.447443C186.801 0.433636 186.925 0.418113 187.05 0.412945C187.174 0.407784 187.327 0.390551 187.388 0.374656C187.449 0.358761 187.5 0.374237 187.501 0.409065C187.503 0.46891 187.526 0.470102 187.919 0.430857C188.293 0.393615 188.357 0.394535 188.545 0.439794C188.744 0.48778 188.75 0.487775 188.663 0.439794C188.593 0.400766 188.655 0.389224 188.938 0.389224C189.139 0.389224 189.373 0.411982 189.458 0.439794C189.543 0.46786 189.614 0.47429 189.617 0.454244C189.621 0.416403 190.075 0.402103 190.075 0.439794C190.075 0.451715 190.59 0.460716 191.219 0.459799C191.848 0.458877 192.396 0.468631 192.438 0.481472C192.479 0.49431 192.659 0.504813 192.837 0.504813C193.096 0.504813 193.123 0.512039 192.972 0.540935C192.783 0.577103 190.956 0.594144 191.071 0.558671V0.558553ZM193.554 0.557684C193.554 0.544437 193.605 0.532725 193.668 0.531651C193.73 0.530578 193.999 0.524257 194.265 0.517607C194.864 0.502648 195.077 0.552223 194.501 0.572478C193.932 0.592503 193.554 0.586606 193.554 0.557684ZM182.663 0.461354C182.663 0.445462 182.408 0.432459 182.096 0.432459C181.784 0.432459 181.478 0.445462 181.417 0.461354C181.343 0.480621 181.305 0.480621 181.303 0.461354C181.3 0.425151 180.394 0.416587 180.394 0.452762C180.394 0.467313 180.332 0.471913 180.256 0.462985C180.112 0.445976 178.782 0.418666 177.368 0.403712C176.911 0.39887 176.536 0.39199 176.536 0.388419C176.536 0.369051 174.546 0.368751 174.419 0.388104C174.191 0.422647 172.679 0.446746 172.679 0.415822C172.679 0.401131 172.577 0.389114 172.452 0.389114C172.327 0.389114 172.225 0.401661 172.225 0.417001C172.225 0.434412 171.16 0.439748 169.389 0.431212C167.829 0.423692 166.388 0.417675 166.188 0.417841C165.987 0.418103 165.595 0.406154 165.318 0.391507C165.014 0.375492 164.813 0.375392 164.813 0.391245C164.813 0.417506 164.284 0.413252 164.14 0.385836C164.099 0.377928 163.411 0.37608 162.611 0.381732C161.646 0.388544 161.084 0.380582 160.942 0.358118C160.776 0.331721 160.728 0.332998 160.726 0.363887C160.725 0.388945 160.683 0.392435 160.613 0.37336C160.546 0.355242 159.685 0.341736 158.459 0.339577C157.336 0.337609 153.933 0.328535 150.896 0.319446C147.859 0.31036 143.962 0.301191 142.236 0.299075C140.509 0.296981 139.097 0.28709 139.097 0.277146C139.096 0.267196 138.722 0.259057 138.265 0.259057C137.807 0.259057 137.433 0.268811 137.433 0.280731C137.433 0.292652 137.361 0.302405 137.273 0.302405C137.185 0.302405 137.155 0.2894 137.206 0.273506C137.257 0.257613 137.193 0.24461 137.064 0.24461C136.934 0.244623 136.828 0.231618 136.828 0.215726C136.828 0.199832 136.756 0.186827 136.668 0.186827C136.579 0.186827 136.549 0.199832 136.601 0.215726C136.656 0.232794 136.49 0.244443 136.194 0.24418C135.815 0.243814 135.748 0.236927 135.92 0.215726C136.088 0.195036 136.095 0.187597 135.947 0.187269C135.793 0.186903 135.799 0.176862 135.974 0.14348C136.099 0.119639 136.342 0.100133 136.514 0.100133C136.687 0.100133 136.828 0.0862519 136.828 0.0692863C136.828 0.0509891 136.959 0.0463714 137.149 0.0579368C137.366 0.071053 137.437 0.0669634 137.367 0.0454355C137.31 0.027836 137.304 0.0134388 137.353 0.0134388C137.402 0.0134388 137.494 0.0401834 137.558 0.0728724L137.673 0.132308L138.072 0.0723637C138.345 0.031276 138.504 0.0226397 138.576 0.044914C138.65 0.0679519 138.718 0.0659998 138.808 0.0382001C138.911 0.00633646 139.949 -0.000807392 144.348 6.93632e-05C147.325 0.000681783 150.987 0.00949823 152.484 0.019711C153.982 0.0299217 156.466 0.045816 158.006 0.0550327C163.563 0.0883044 164.995 0.100397 165.12 0.115101C165.398 0.147956 166.617 0.1771 166.802 0.155309C166.915 0.14188 167.048 0.146675 167.116 0.16668C167.203 0.192496 167.271 0.190275 167.382 0.157928C167.464 0.134087 167.532 0.127585 167.534 0.14348C167.535 0.161719 168.471 0.171089 170.07 0.168886C172.597 0.1654 176.914 0.212048 176.915 0.242841C176.915 0.251769 177.442 0.257608 178.087 0.255824C179.192 0.252762 181.737 0.292309 182.188 0.319555C182.355 0.329607 182.358 0.34041 182.205 0.37567C182.05 0.411204 182.054 0.416971 182.225 0.406637C182.341 0.399655 182.626 0.385971 182.858 0.376231C183.118 0.365317 183.247 0.34498 183.193 0.323245C183.145 0.303844 183.185 0.308326 183.282 0.3332C183.424 0.369781 183.619 0.374268 184.298 0.356658C184.776 0.344275 185.252 0.346577 185.403 0.361996C185.549 0.376912 185.86 0.390884 186.094 0.393048C186.487 0.39667 186.491 0.39802 186.155 0.410121C185.873 0.420288 185.839 0.429103 186.004 0.44909C186.238 0.47737 186.041 0.480912 183.911 0.486806C183.168 0.488852 182.663 0.478569 182.663 0.461358L182.663 0.461354ZM138.698 0.201441C138.65 0.177689 138.55 0.165455 138.476 0.17425C138.262 0.199466 138.318 0.24462 138.563 0.24462C138.698 0.24462 138.751 0.227669 138.698 0.201441ZM129.876 0.300225C130.031 0.244653 130.022 0.238343 129.808 0.254038C129.594 0.269695 129.585 0.263367 129.738 0.208441L129.917 0.144666L130.068 0.209094C130.24 0.283011 130.553 0.293759 130.68 0.230172C130.728 0.206331 130.713 0.186825 130.646 0.186825C130.579 0.186825 130.525 0.16716 130.525 0.143122C130.525 0.107591 130.662 0.102883 131.256 0.117947C131.755 0.130603 131.987 0.126139 131.987 0.103857C131.987 0.0857364 132.227 0.0712343 132.526 0.0712343C132.878 0.0712343 133.028 0.0821805 132.961 0.103015C132.888 0.125609 132.95 0.125418 133.176 0.102351C133.439 0.0753892 133.478 0.0773446 133.405 0.113916C133.356 0.138123 133.255 0.15793 133.181 0.15793C133.107 0.15793 133.046 0.170934 133.046 0.186826C133.046 0.247065 133.319 0.212249 133.5 0.129031C133.71 0.0319778 133.716 0.0314442 134.095 0.0702136C134.286 0.0897712 134.345 0.120308 134.293 0.172555C134.252 0.213512 134.278 0.243234 134.351 0.238598C134.424 0.233965 134.517 0.242879 134.559 0.258415C134.603 0.27512 134.244 0.288659 133.679 0.29156C132.805 0.29604 132.709 0.290513 132.558 0.227196C132.395 0.158924 131.836 0.128986 131.836 0.188531C131.836 0.205367 131.903 0.211191 131.985 0.201481C132.07 0.191516 132.097 0.202581 132.049 0.226848C131.998 0.251988 131.863 0.262584 131.723 0.252335C131.567 0.240939 131.521 0.246337 131.59 0.267765C131.712 0.305379 131.209 0.333153 130.626 0.321056C130.418 0.316749 130.123 0.324778 129.971 0.338904C129.724 0.361919 129.714 0.357904 129.876 0.300226V0.300225ZM134.014 0.191642C134.057 0.178398 133.995 0.167562 133.878 0.167562C133.761 0.167562 133.699 0.178398 133.742 0.191642C133.785 0.204886 133.846 0.215724 133.878 0.215724C133.91 0.215724 133.971 0.204886 134.014 0.191642ZM127.838 0.305701C127.792 0.291614 127.891 0.273314 128.056 0.265031C128.257 0.254999 128.327 0.234601 128.265 0.203951C128.215 0.178638 128.237 0.157928 128.315 0.157928C128.523 0.157928 128.489 0.252325 128.267 0.294849C128.041 0.337982 127.95 0.340287 127.838 0.305701ZM128.765 0.225356C128.808 0.204163 128.862 0.186825 128.886 0.186825C128.91 0.186825 128.964 0.204163 129.007 0.225356C129.049 0.246549 128.995 0.263888 128.886 0.263888C128.777 0.263888 128.723 0.246549 128.765 0.225356ZM129.349 0.144398C129.51 0.121063 129.792 0.101557 129.974 0.101051C130.335 0.10003 130.565 0.143871 130.339 0.170561C130.261 0.179704 130.172 0.172247 130.14 0.153964C130.096 0.128998 130.002 0.12895 129.759 0.153702C129.294 0.201244 129.001 0.194544 129.349 0.144317V0.144398ZM127.339 0.140466C127.389 0.130864 127.519 0.129837 127.629 0.138189C127.749 0.147413 127.713 0.154261 127.537 0.155647C127.378 0.156898 127.288 0.150072 127.339 0.14047V0.140466ZM135.315 0.129027C135.121 0.105088 135.127 0.100948 135.353 0.10057C135.499 0.100308 135.618 0.113131 135.618 0.129027C135.618 0.164272 135.601 0.164272 135.315 0.129027ZM134.503 0.0850127C134.431 0.0491003 134.469 0.0466266 134.713 0.0715794C135.064 0.10743 135.097 0.129027 134.802 0.129027C134.686 0.129027 134.551 0.109219 134.503 0.0850127Z" fill="#F87F81"/>
</svg>
